<svg width="62" height="63" viewBox="0 0 62 63" fill="none" xmlns="http://www.w3.org/2000/svg">
<path d="M61.5 31.5C61.5 48.6284 47.8372 62.5 31 62.5C14.1628 62.5 0.5 48.6284 0.5 31.5C0.5 14.3716 14.1628 0.5 31 0.5C47.8372 0.5 61.5 14.3716 61.5 31.5Z" fill="#49494B" stroke="#7C6E4F"/>
<path d="M42 13H36C33.3478 13 30.8043 14.0009 28.9289 15.7825C27.0536 17.5641 26 19.9804 26 22.5V28.2H20V35.8H26V51H34V35.8H40L42 28.2H34V22.5C34 21.9961 34.2107 21.5128 34.5858 21.1565C34.9609 20.8002 35.4696 20.6 36 20.6H42V13Z" stroke="#706346" stroke-width="2" stroke-linecap="round" stroke-linejoin="round"/>
</svg>
