<svg width="62" height="63" viewBox="0 0 62 63" fill="none" xmlns="http://www.w3.org/2000/svg">
<path d="M61.5 31.5C61.5 48.6284 47.8372 62.5 31 62.5C14.1628 62.5 0.5 48.6284 0.5 31.5C0.5 14.3716 14.1628 0.5 31 0.5C47.8372 0.5 61.5 14.3716 61.5 31.5Z" fill="#49494B" stroke="black"/>
<path d="M39.75 15H21.25C16.1414 15 12 18.6937 12 23.25V39.75C12 44.3063 16.1414 48 21.25 48H39.75C44.8586 48 49 44.3063 49 39.75V23.25C49 18.6937 44.8586 15 39.75 15Z" stroke="black" stroke-width="2" stroke-linecap="round" stroke-linejoin="round"/>
<path d="M37.9075 30.4605C38.1358 31.8337 37.8728 33.2362 37.1559 34.4684C36.439 35.7006 35.3048 36.6998 33.9145 37.324C32.5242 37.9481 30.9486 38.1653 29.4119 37.9448C27.8751 37.7243 26.4555 37.0771 25.3549 36.0955C24.2543 35.1139 23.5288 33.8478 23.2815 32.4772C23.0342 31.1066 23.2778 29.7013 23.9776 28.4613C24.6774 27.2213 25.7977 26.2097 27.1793 25.5703C28.5609 24.9309 30.1333 24.6964 31.673 24.9C33.2435 25.1077 34.6974 25.7604 35.8201 26.7617C36.9428 27.763 37.6746 29.0598 37.9075 30.4605Z" stroke="black" stroke-width="2" stroke-linecap="round" stroke-linejoin="round"/>
<path d="M40.6797 22.4253H40.6988" stroke="black" stroke-width="2" stroke-linecap="round" stroke-linejoin="round"/>
</svg>
