<svg width="36" height="28" viewBox="0 0 36 28" fill="none" xmlns="http://www.w3.org/2000/svg">
<path d="M26.5 1H9.5C4.80558 1 1 3.91015 1 7.5V20.5C1 24.0898 4.80558 27 9.5 27H26.5C31.1944 27 35 24.0898 35 20.5V7.5C35 3.91015 31.1944 1 26.5 1Z" stroke="black" stroke-width="2" stroke-linecap="round" stroke-linejoin="round"/>
<path d="M24.7992 13.1808C25.009 14.2627 24.7673 15.3677 24.1086 16.3385C23.4498 17.3093 22.4075 18.0966 21.1299 18.5884C19.8523 19.0801 18.4045 19.2513 16.9924 19.0775C15.5803 18.9037 14.2758 18.3939 13.2644 17.6205C12.253 16.8471 11.5863 15.8495 11.3591 14.7697C11.1318 13.6898 11.3557 12.5826 11.9987 11.6057C12.6418 10.6287 13.6713 9.83164 14.9408 9.3279C16.2104 8.82415 17.6553 8.63935 19.0702 8.79978C20.5133 8.96343 21.8494 9.47768 22.881 10.2666C23.9127 11.0555 24.5852 12.0772 24.7992 13.1808Z" stroke="black" stroke-width="2" stroke-linecap="round" stroke-linejoin="round"/>
<path d="M27.3502 6.84998H27.3672" stroke="black" stroke-width="2" stroke-linecap="round" stroke-linejoin="round"/>
</svg>
