<svg width="61" height="63" viewBox="0 0 61 63" fill="none" xmlns="http://www.w3.org/2000/svg">
<path d="M60.5 31.5C60.5 48.6362 47.0535 62.5 30.5 62.5C13.9465 62.5 0.5 48.6362 0.5 31.5C0.5 14.3638 13.9465 0.5 30.5 0.5C47.0535 0.5 60.5 14.3638 60.5 31.5Z" fill="#49494B" stroke="black"/>
<path d="M48 18.0157C46.3895 19.0697 44.6063 19.8759 42.7191 20.4032C41.7062 19.3226 40.3601 18.5567 38.8627 18.2091C37.3654 17.8615 35.7892 17.9489 34.3471 18.4596C32.9051 18.9702 31.6669 19.8795 30.8 21.0643C29.9331 22.2492 29.4793 23.6525 29.5 25.0845V26.6449C26.5444 26.716 23.6158 26.1078 20.9749 24.8745C18.334 23.6412 16.0628 21.821 14.3636 19.5761C14.3636 19.5761 7.63636 33.6201 22.7727 39.8618C19.3091 42.0433 15.1829 43.1371 11 42.9827C26.1364 50.7849 44.6364 42.9827 44.6364 25.0377C44.6348 24.603 44.5898 24.1694 44.5018 23.7425C46.2183 22.1719 47.4296 20.1889 48 18.0157Z" stroke="black" stroke-width="2" stroke-linecap="round" stroke-linejoin="round"/>
</svg>
