<svg width="207" height="19" viewBox="0 0 207 19" fill="none" xmlns="http://www.w3.org/2000/svg">
<path d="M14.2861 1.008C14.2221 1.616 14.1741 2.208 14.1421 2.784C14.1261 3.344 14.1181 3.776 14.1181 4.08C14.1181 4.464 14.1261 4.824 14.1421 5.16C14.1581 5.496 14.1741 5.792 14.1901 6.048H13.6381C13.5261 4.928 13.3741 4.048 13.1821 3.408C12.9901 2.752 12.6541 2.28 12.1741 1.992C11.6941 1.704 10.9501 1.56 9.94213 1.56H8.64613V15.216C8.64613 15.856 8.70213 16.336 8.81413 16.656C8.94213 16.976 9.18213 17.192 9.53413 17.304C9.88613 17.416 10.3981 17.488 11.0701 17.52V18C10.6541 17.968 10.1261 17.952 9.48613 17.952C8.84613 17.936 8.19813 17.928 7.54213 17.928C6.82213 17.928 6.14213 17.936 5.50213 17.952C4.87813 17.952 4.37413 17.968 3.99013 18V17.52C4.66213 17.488 5.17413 17.416 5.52613 17.304C5.87813 17.192 6.11013 16.976 6.22213 16.656C6.35013 16.336 6.41412 15.856 6.41412 15.216V1.56H5.11813C4.12613 1.56 3.38213 1.704 2.88613 1.992C2.40613 2.28 2.07013 2.752 1.87813 3.408C1.68613 4.048 1.53413 4.928 1.42213 6.048H0.870125C0.902125 5.792 0.918125 5.496 0.918125 5.16C0.934125 4.824 0.942125 4.464 0.942125 4.08C0.942125 3.776 0.926125 3.344 0.894125 2.784C0.878125 2.208 0.838125 1.616 0.774125 1.008C1.44613 1.024 2.17413 1.04 2.95813 1.056C3.75813 1.072 4.55813 1.08 5.35813 1.08C6.15813 1.08 6.88613 1.08 7.54213 1.08C8.19813 1.08 8.91813 1.08 9.70213 1.08C10.5021 1.08 11.3021 1.072 12.1021 1.056C12.9021 1.04 13.6301 1.024 14.2861 1.008ZM26.0244 18V17.52C26.5684 17.488 26.9764 17.424 27.2484 17.328C27.5364 17.232 27.7284 17.04 27.8244 16.752C27.9204 16.464 27.9684 16.032 27.9684 15.456V3.552C27.9684 2.96 27.9204 2.528 27.8244 2.256C27.7284 1.968 27.5364 1.776 27.2484 1.68C26.9764 1.568 26.5684 1.504 26.0244 1.488V1.008C26.3924 1.024 26.8564 1.04 27.4164 1.056C27.9764 1.072 28.5284 1.08 29.0724 1.08C29.6964 1.08 30.2804 1.072 30.8244 1.056C31.3684 1.04 31.8084 1.024 32.1444 1.008V1.488C31.6004 1.504 31.1844 1.568 30.8964 1.68C30.6244 1.776 30.4404 1.968 30.3444 2.256C30.2484 2.528 30.2004 2.96 30.2004 3.552V15.456C30.2004 16.032 30.2484 16.464 30.3444 16.752C30.4404 17.04 30.6244 17.232 30.8964 17.328C31.1844 17.424 31.6004 17.488 32.1444 17.52V18C31.8084 17.968 31.3684 17.952 30.8244 17.952C30.2804 17.936 29.6964 17.928 29.0724 17.928C28.5284 17.928 27.9764 17.936 27.4164 17.952C26.8564 17.952 26.3924 17.968 26.0244 18ZM15.9924 18V17.52C16.5364 17.488 16.9444 17.424 17.2164 17.328C17.5044 17.232 17.6964 17.04 17.7924 16.752C17.8884 16.464 17.9364 16.032 17.9364 15.456V3.552C17.9364 2.96 17.8884 2.528 17.7924 2.256C17.6964 1.968 17.5044 1.776 17.2164 1.68C16.9444 1.568 16.5364 1.504 15.9924 1.488V1.008C16.3284 1.024 16.7684 1.04 17.3124 1.056C17.8564 1.072 18.4404 1.08 19.0644 1.08C19.6244 1.08 20.1764 1.072 20.7204 1.056C21.2804 1.04 21.7444 1.024 22.1124 1.008V1.488C21.5684 1.504 21.1524 1.568 20.8644 1.68C20.5924 1.776 20.4084 1.968 20.3124 2.256C20.2164 2.528 20.1684 2.96 20.1684 3.552V15.456C20.1684 16.032 20.2164 16.464 20.3124 16.752C20.4084 17.04 20.5924 17.232 20.8644 17.328C21.1524 17.424 21.5684 17.488 22.1124 17.52V18C21.7444 17.968 21.2804 17.952 20.7204 17.952C20.1764 17.936 19.6244 17.928 19.0644 17.928C18.4404 17.928 17.8564 17.936 17.3124 17.952C16.7684 17.952 16.3284 17.968 15.9924 18ZM19.3284 9.696V9.216H28.8084V9.696H19.3284ZM46.1324 1.008C46.0684 1.568 46.0204 2.112 45.9884 2.64C45.9724 3.168 45.9644 3.568 45.9644 3.84C45.9644 4.128 45.9724 4.408 45.9884 4.68C46.0044 4.936 46.0204 5.152 46.0364 5.328H45.4844C45.3884 4.384 45.2524 3.64 45.0764 3.096C44.9004 2.536 44.5964 2.144 44.1644 1.92C43.7484 1.68 43.1164 1.56 42.2684 1.56H40.2764C39.7324 1.56 39.3164 1.608 39.0284 1.704C38.7564 1.784 38.5724 1.968 38.4764 2.256C38.3804 2.528 38.3324 2.96 38.3324 3.552V15.456C38.3324 16.032 38.3804 16.464 38.4764 16.752C38.5724 17.04 38.7564 17.232 39.0284 17.328C39.3164 17.408 39.7324 17.448 40.2764 17.448H42.0284C43.0364 17.448 43.7964 17.312 44.3084 17.04C44.8364 16.768 45.2124 16.328 45.4364 15.72C45.6764 15.096 45.8524 14.256 45.9644 13.2H46.5164C46.4684 13.632 46.4444 14.208 46.4444 14.928C46.4444 15.232 46.4524 15.672 46.4684 16.248C46.5004 16.808 46.5484 17.392 46.6124 18C45.7964 17.968 44.8764 17.952 43.8524 17.952C42.8284 17.936 41.9164 17.928 41.1164 17.928C40.7644 17.928 40.3084 17.928 39.7484 17.928C39.2044 17.928 38.6124 17.936 37.9724 17.952C37.3324 17.952 36.6844 17.96 36.0284 17.976C35.3724 17.976 34.7484 17.984 34.1564 18V17.52C34.7004 17.488 35.1084 17.424 35.3804 17.328C35.6684 17.232 35.8604 17.04 35.9564 16.752C36.0524 16.464 36.1004 16.032 36.1004 15.456V3.552C36.1004 2.96 36.0524 2.528 35.9564 2.256C35.8604 1.968 35.6684 1.776 35.3804 1.68C35.1084 1.568 34.7004 1.504 34.1564 1.488V1.008C34.7484 1.024 35.3724 1.04 36.0284 1.056C36.6844 1.056 37.3324 1.064 37.9724 1.08C38.6124 1.08 39.2044 1.08 39.7484 1.08C40.3084 1.08 40.7644 1.08 41.1164 1.08C41.8524 1.08 42.6844 1.08 43.6124 1.08C44.5564 1.064 45.3964 1.04 46.1324 1.008ZM42.0044 9.216C42.0044 9.216 42.0044 9.296 42.0044 9.456C42.0044 9.616 42.0044 9.696 42.0044 9.696H37.6124C37.6124 9.696 37.6124 9.616 37.6124 9.456C37.6124 9.296 37.6124 9.216 37.6124 9.216H42.0044ZM42.7004 6.048C42.6364 6.96 42.6044 7.656 42.6044 8.136C42.6204 8.616 42.6284 9.056 42.6284 9.456C42.6284 9.856 42.6364 10.296 42.6524 10.776C42.6684 11.256 42.7084 11.952 42.7724 12.864H42.2204C42.1564 12.352 42.0764 11.856 41.9804 11.376C41.9004 10.88 41.7084 10.48 41.4044 10.176C41.1164 9.856 40.6204 9.696 39.9164 9.696V9.216C40.4444 9.216 40.8444 9.112 41.1164 8.904C41.4044 8.68 41.6124 8.4 41.7404 8.064C41.8684 7.728 41.9564 7.384 42.0044 7.032C42.0524 6.664 42.1004 6.336 42.1484 6.048H42.7004ZM74.7211 1.008V1.488C74.4171 1.552 74.0811 1.736 73.7131 2.04C73.3451 2.328 73.0491 2.84 72.8251 3.576L68.2891 18.12C68.2571 18.12 68.2251 18.12 68.1931 18.12C68.1611 18.12 68.1291 18.12 68.0971 18.12C68.0651 18.12 68.0331 18.12 68.0011 18.12C67.9691 18.12 67.9371 18.12 67.9051 18.12L62.8171 3.024C62.6091 2.4 62.3771 1.992 62.1211 1.8C61.8651 1.608 61.6251 1.504 61.4011 1.488V1.008C61.6891 1.024 62.0491 1.04 62.4811 1.056C62.9131 1.072 63.3291 1.08 63.7291 1.08C64.3531 1.08 64.9371 1.072 65.4811 1.056C66.0251 1.04 66.4651 1.024 66.8011 1.008V1.488C66.3211 1.504 65.9371 1.552 65.6491 1.632C65.3771 1.712 65.2171 1.888 65.1691 2.16C65.1371 2.432 65.2171 2.88 65.4091 3.504L68.9851 14.568L68.6491 14.856L71.8171 4.896C72.1051 4.016 72.2331 3.336 72.2011 2.856C72.1851 2.36 72.0091 2.016 71.6731 1.824C71.3371 1.616 70.8331 1.504 70.1611 1.488V1.008C70.6251 1.024 71.0971 1.04 71.5771 1.056C72.0571 1.072 72.5051 1.08 72.9211 1.08C73.3371 1.08 73.6811 1.072 73.9531 1.056C74.2251 1.04 74.4811 1.024 74.7211 1.008ZM57.9451 1.008V1.488C57.5291 1.52 57.2251 1.6 57.0331 1.728C56.8571 1.856 56.7691 2.064 56.7691 2.352C56.7851 2.624 56.8731 3.008 57.0331 3.504L60.7531 14.856L60.1531 15.456L63.5131 4.728L63.8731 5.304L59.9131 18.12C59.8811 18.12 59.8491 18.12 59.8171 18.12C59.7851 18.12 59.7531 18.12 59.7211 18.12C59.6891 18.12 59.6571 18.12 59.6251 18.12C59.5931 18.12 59.5611 18.12 59.5291 18.12L54.4411 3.024C54.2331 2.4 53.9691 1.992 53.6491 1.8C53.3291 1.608 53.0411 1.504 52.7851 1.488V1.008C53.1051 1.024 53.4971 1.04 53.9611 1.056C54.4411 1.072 54.9051 1.08 55.3531 1.08C55.8811 1.08 56.3691 1.072 56.8171 1.056C57.2811 1.04 57.6571 1.024 57.9451 1.008ZM81.0723 0.887999L86.9283 15.984C87.1683 16.592 87.4403 17 87.7443 17.208C88.0483 17.4 88.3283 17.504 88.5843 17.52V18C88.2643 17.968 87.8723 17.952 87.4083 17.952C86.9443 17.936 86.4803 17.928 86.0163 17.928C85.3923 17.928 84.8083 17.936 84.2643 17.952C83.7203 17.952 83.2803 17.968 82.9443 18V17.52C83.7603 17.488 84.2803 17.352 84.5043 17.112C84.7283 16.856 84.6803 16.32 84.3603 15.504L79.8963 3.576L80.2803 3.264L76.1043 14.112C75.8483 14.752 75.6963 15.296 75.6483 15.744C75.6003 16.176 75.6403 16.52 75.7683 16.776C75.9123 17.032 76.1443 17.216 76.4643 17.328C76.8003 17.44 77.2163 17.504 77.7123 17.52V18C77.2643 17.968 76.7923 17.952 76.2963 17.952C75.8163 17.936 75.3683 17.928 74.9523 17.928C74.5523 17.928 74.2083 17.936 73.9203 17.952C73.6483 17.952 73.3923 17.968 73.1523 18V17.52C73.4723 17.44 73.8003 17.256 74.1363 16.968C74.4723 16.664 74.7763 16.152 75.0483 15.432L80.6883 0.887999C80.7523 0.887999 80.8163 0.887999 80.8803 0.887999C80.9443 0.887999 81.0083 0.887999 81.0723 0.887999ZM84.0003 11.088V11.568H76.8483L77.0883 11.088H84.0003ZM101.354 1.008V1.488C101.05 1.552 100.746 1.752 100.442 2.088C100.138 2.408 99.8022 2.92 99.4342 3.624L94.5862 13.224H94.1782L88.5622 2.856C88.2422 2.264 87.9702 1.896 87.7462 1.752C87.5382 1.592 87.3462 1.512 87.1702 1.512V1.008C87.4902 1.024 87.8182 1.04 88.1542 1.056C88.5062 1.072 88.8822 1.08 89.2822 1.08C89.8102 1.08 90.3702 1.08 90.9622 1.08C91.5702 1.064 92.1302 1.04 92.6422 1.008V1.512C92.2422 1.512 91.8902 1.56 91.5862 1.656C91.2822 1.752 91.0822 1.928 90.9862 2.184C90.8902 2.44 90.9622 2.8 91.2022 3.264L95.2582 11.04L95.0662 11.184L98.2582 4.824C98.7062 3.944 98.9222 3.264 98.9062 2.784C98.9062 2.304 98.7222 1.976 98.3542 1.8C97.9862 1.608 97.4662 1.504 96.7942 1.488V1.008C97.2582 1.024 97.7302 1.04 98.2102 1.056C98.6902 1.072 99.1382 1.08 99.5542 1.08C99.9702 1.08 100.314 1.072 100.586 1.056C100.858 1.04 101.114 1.024 101.354 1.008ZM95.6662 10.704V15.456C95.6662 16.032 95.7142 16.464 95.8102 16.752C95.9062 17.04 96.0902 17.232 96.3622 17.328C96.6502 17.424 97.0662 17.488 97.6102 17.52V18C97.2422 17.968 96.7782 17.952 96.2182 17.952C95.6742 17.936 95.1222 17.928 94.5622 17.928C93.9382 17.928 93.3542 17.936 92.8102 17.952C92.2662 17.952 91.8262 17.968 91.4902 18V17.52C92.0342 17.488 92.4422 17.424 92.7142 17.328C93.0022 17.232 93.1942 17.04 93.2902 16.752C93.3862 16.464 93.4342 16.032 93.4342 15.456V10.536L94.7302 12.024L95.6662 10.704ZM115.529 0.671999C116.585 0.671999 117.449 0.831999 118.121 1.152C118.809 1.456 119.417 1.816 119.945 2.232C120.265 2.472 120.505 2.504 120.665 2.328C120.841 2.136 120.961 1.696 121.025 1.008H121.577C121.545 1.6 121.521 2.32 121.505 3.168C121.489 4.016 121.481 5.136 121.481 6.528H120.929C120.817 5.84 120.713 5.296 120.617 4.896C120.521 4.48 120.401 4.128 120.257 3.84C120.129 3.552 119.953 3.264 119.729 2.976C119.233 2.32 118.609 1.848 117.857 1.56C117.105 1.256 116.313 1.104 115.481 1.104C114.697 1.104 113.985 1.304 113.345 1.704C112.721 2.088 112.177 2.648 111.713 3.384C111.265 4.12 110.913 5.008 110.657 6.048C110.417 7.088 110.297 8.256 110.297 9.552C110.297 10.896 110.433 12.088 110.705 13.128C110.977 14.152 111.353 15.016 111.833 15.72C112.329 16.424 112.905 16.96 113.561 17.328C114.233 17.68 114.953 17.856 115.721 17.856C116.441 17.856 117.193 17.712 117.977 17.424C118.761 17.136 119.377 16.672 119.825 16.032C120.177 15.568 120.417 15.064 120.545 14.52C120.689 13.976 120.817 13.216 120.929 12.24H121.481C121.481 13.696 121.489 14.872 121.505 15.768C121.521 16.648 121.545 17.392 121.577 18H121.025C120.961 17.312 120.849 16.88 120.689 16.704C120.545 16.528 120.297 16.552 119.945 16.776C119.353 17.192 118.721 17.56 118.049 17.88C117.393 18.184 116.545 18.336 115.505 18.336C113.985 18.336 112.649 17.992 111.497 17.304C110.361 16.616 109.473 15.624 108.833 14.328C108.209 13.032 107.897 11.472 107.897 9.648C107.897 7.856 108.225 6.288 108.881 4.944C109.537 3.6 110.433 2.552 111.569 1.8C112.721 1.048 114.041 0.671999 115.529 0.671999ZM134.188 18V17.52C134.732 17.488 135.14 17.424 135.412 17.328C135.7 17.232 135.892 17.04 135.988 16.752C136.084 16.464 136.132 16.032 136.132 15.456V3.552C136.132 2.96 136.084 2.528 135.988 2.256C135.892 1.968 135.7 1.776 135.412 1.68C135.14 1.568 134.732 1.504 134.188 1.488V1.008C134.556 1.024 135.02 1.04 135.58 1.056C136.14 1.072 136.692 1.08 137.236 1.08C137.86 1.08 138.444 1.072 138.988 1.056C139.532 1.04 139.972 1.024 140.308 1.008V1.488C139.764 1.504 139.348 1.568 139.06 1.68C138.788 1.776 138.604 1.968 138.508 2.256C138.412 2.528 138.364 2.96 138.364 3.552V15.456C138.364 16.032 138.412 16.464 138.508 16.752C138.604 17.04 138.788 17.232 139.06 17.328C139.348 17.424 139.764 17.488 140.308 17.52V18C139.972 17.968 139.532 17.952 138.988 17.952C138.444 17.936 137.86 17.928 137.236 17.928C136.692 17.928 136.14 17.936 135.58 17.952C135.02 17.952 134.556 17.968 134.188 18ZM124.156 18V17.52C124.7 17.488 125.108 17.424 125.38 17.328C125.668 17.232 125.86 17.04 125.956 16.752C126.052 16.464 126.1 16.032 126.1 15.456V3.552C126.1 2.96 126.052 2.528 125.956 2.256C125.86 1.968 125.668 1.776 125.38 1.68C125.108 1.568 124.7 1.504 124.156 1.488V1.008C124.492 1.024 124.932 1.04 125.476 1.056C126.02 1.072 126.604 1.08 127.228 1.08C127.788 1.08 128.34 1.072 128.884 1.056C129.444 1.04 129.908 1.024 130.276 1.008V1.488C129.732 1.504 129.316 1.568 129.028 1.68C128.756 1.776 128.572 1.968 128.476 2.256C128.38 2.528 128.332 2.96 128.332 3.552V15.456C128.332 16.032 128.38 16.464 128.476 16.752C128.572 17.04 128.756 17.232 129.028 17.328C129.316 17.424 129.732 17.488 130.276 17.52V18C129.908 17.968 129.444 17.952 128.884 17.952C128.34 17.936 127.788 17.928 127.228 17.928C126.604 17.928 126.02 17.936 125.476 17.952C124.932 17.952 124.492 17.968 124.156 18ZM127.492 9.696V9.216H136.972V9.696H127.492ZM157.033 1.008V1.488C156.489 1.504 156.073 1.584 155.785 1.728C155.513 1.872 155.329 2.104 155.233 2.424C155.137 2.744 155.089 3.2 155.089 3.792V11.016C155.089 12.136 155.016 13.112 154.872 13.944C154.729 14.776 154.473 15.496 154.105 16.104C153.705 16.776 153.121 17.32 152.353 17.736C151.585 18.136 150.705 18.336 149.713 18.336C148.945 18.336 148.209 18.24 147.505 18.048C146.817 17.872 146.209 17.536 145.681 17.04C145.217 16.592 144.849 16.12 144.577 15.624C144.321 15.128 144.145 14.52 144.049 13.8C143.953 13.08 143.905 12.176 143.905 11.088V3.552C143.905 2.96 143.857 2.528 143.761 2.256C143.665 1.968 143.473 1.776 143.185 1.68C142.913 1.568 142.505 1.504 141.961 1.488V1.008C142.297 1.024 142.737 1.04 143.281 1.056C143.825 1.072 144.409 1.08 145.033 1.08C145.593 1.08 146.145 1.072 146.689 1.056C147.249 1.04 147.713 1.024 148.081 1.008V1.488C147.537 1.504 147.121 1.568 146.833 1.68C146.561 1.776 146.377 1.968 146.281 2.256C146.185 2.528 146.137 2.96 146.137 3.552V11.496C146.137 12.312 146.177 13.088 146.257 13.824C146.337 14.544 146.497 15.184 146.737 15.744C146.993 16.288 147.377 16.72 147.889 17.04C148.401 17.344 149.081 17.496 149.929 17.496C151.145 17.496 152.081 17.232 152.737 16.704C153.409 16.16 153.873 15.416 154.129 14.472C154.401 13.528 154.536 12.464 154.536 11.28V3.792C154.536 3.2 154.465 2.744 154.321 2.424C154.193 2.104 153.969 1.872 153.648 1.728C153.329 1.584 152.897 1.504 152.353 1.488V1.008C152.641 1.024 153.017 1.04 153.481 1.056C153.961 1.072 154.401 1.08 154.801 1.08C155.217 1.08 155.625 1.072 156.025 1.056C156.441 1.04 156.777 1.024 157.033 1.008ZM158.68 1.008C159.016 1.024 159.456 1.04 160 1.056C160.544 1.072 161.08 1.08 161.608 1.08C162.36 1.08 163.08 1.072 163.768 1.056C164.456 1.04 164.944 1.032 165.232 1.032C166.528 1.032 167.6 1.216 168.448 1.584C169.312 1.952 169.952 2.456 170.368 3.096C170.8 3.72 171.016 4.424 171.016 5.208C171.016 5.688 170.92 6.2 170.728 6.744C170.536 7.288 170.2 7.8 169.72 8.28C169.256 8.76 168.616 9.16 167.8 9.48C166.984 9.784 165.952 9.936 164.704 9.936H162.4V9.456H164.464C165.6 9.456 166.464 9.28 167.056 8.928C167.664 8.56 168.072 8.08 168.28 7.488C168.504 6.88 168.616 6.208 168.616 5.472C168.616 4.208 168.312 3.232 167.704 2.544C167.112 1.84 166.088 1.488 164.632 1.488C163.896 1.488 163.416 1.624 163.192 1.896C162.968 2.168 162.856 2.72 162.856 3.552V15.456C162.856 16.032 162.904 16.464 163 16.752C163.096 17.04 163.28 17.232 163.552 17.328C163.84 17.424 164.256 17.488 164.8 17.52V18C164.432 17.968 163.968 17.952 163.408 17.952C162.864 17.936 162.312 17.928 161.752 17.928C161.128 17.928 160.544 17.936 160 17.952C159.456 17.952 159.016 17.968 158.68 18V17.52C159.224 17.488 159.632 17.424 159.904 17.328C160.192 17.232 160.384 17.04 160.48 16.752C160.576 16.464 160.624 16.032 160.624 15.456V3.552C160.624 2.96 160.576 2.528 160.48 2.256C160.384 1.968 160.192 1.776 159.904 1.68C159.632 1.568 159.224 1.504 158.68 1.488V1.008ZM162.496 9.528C163.36 9.56 164.04 9.6 164.536 9.648C165.032 9.68 165.432 9.712 165.736 9.744C166.056 9.776 166.36 9.816 166.648 9.864C167.72 10.04 168.488 10.368 168.952 10.848C169.432 11.312 169.784 12.04 170.008 13.032L170.608 15.48C170.768 16.184 170.928 16.696 171.088 17.016C171.264 17.32 171.528 17.464 171.88 17.448C172.152 17.432 172.376 17.344 172.552 17.184C172.744 17.024 172.944 16.808 173.152 16.536L173.512 16.8C173.176 17.296 172.824 17.68 172.456 17.952C172.104 18.208 171.6 18.336 170.944 18.336C170.352 18.336 169.832 18.16 169.384 17.808C168.936 17.456 168.6 16.768 168.376 15.744L167.848 13.344C167.704 12.656 167.536 12.064 167.344 11.568C167.168 11.056 166.912 10.656 166.576 10.368C166.256 10.08 165.776 9.936 165.136 9.936H162.544L162.496 9.528ZM182.138 0.671999C183.194 0.671999 184.058 0.831999 184.73 1.152C185.418 1.456 186.026 1.816 186.554 2.232C186.874 2.472 187.114 2.504 187.274 2.328C187.45 2.136 187.57 1.696 187.634 1.008H188.186C188.154 1.6 188.13 2.32 188.114 3.168C188.098 4.016 188.09 5.136 188.09 6.528H187.538C187.426 5.84 187.322 5.296 187.226 4.896C187.13 4.48 187.01 4.128 186.866 3.84C186.738 3.552 186.562 3.264 186.338 2.976C185.842 2.32 185.218 1.848 184.466 1.56C183.714 1.256 182.922 1.104 182.09 1.104C181.306 1.104 180.594 1.304 179.954 1.704C179.33 2.088 178.786 2.648 178.322 3.384C177.874 4.12 177.522 5.008 177.266 6.048C177.026 7.088 176.906 8.256 176.906 9.552C176.906 10.896 177.042 12.088 177.314 13.128C177.586 14.152 177.962 15.016 178.442 15.72C178.938 16.424 179.514 16.96 180.17 17.328C180.842 17.68 181.562 17.856 182.33 17.856C183.05 17.856 183.802 17.712 184.586 17.424C185.37 17.136 185.986 16.672 186.434 16.032C186.786 15.568 187.026 15.064 187.154 14.52C187.298 13.976 187.426 13.216 187.538 12.24H188.09C188.09 13.696 188.098 14.872 188.114 15.768C188.13 16.648 188.154 17.392 188.186 18H187.634C187.57 17.312 187.458 16.88 187.298 16.704C187.154 16.528 186.906 16.552 186.554 16.776C185.962 17.192 185.33 17.56 184.658 17.88C184.002 18.184 183.154 18.336 182.114 18.336C180.594 18.336 179.258 17.992 178.106 17.304C176.97 16.616 176.082 15.624 175.442 14.328C174.818 13.032 174.506 11.472 174.506 9.648C174.506 7.856 174.834 6.288 175.49 4.944C176.146 3.6 177.042 2.552 178.178 1.8C179.33 1.048 180.65 0.671999 182.138 0.671999ZM200.798 18V17.52C201.342 17.488 201.75 17.424 202.022 17.328C202.31 17.232 202.502 17.04 202.598 16.752C202.694 16.464 202.742 16.032 202.742 15.456V3.552C202.742 2.96 202.694 2.528 202.598 2.256C202.502 1.968 202.31 1.776 202.022 1.68C201.75 1.568 201.342 1.504 200.798 1.488V1.008C201.166 1.024 201.63 1.04 202.19 1.056C202.75 1.072 203.302 1.08 203.846 1.08C204.47 1.08 205.054 1.072 205.598 1.056C206.142 1.04 206.582 1.024 206.918 1.008V1.488C206.374 1.504 205.958 1.568 205.67 1.68C205.398 1.776 205.214 1.968 205.118 2.256C205.022 2.528 204.974 2.96 204.974 3.552V15.456C204.974 16.032 205.022 16.464 205.118 16.752C205.214 17.04 205.398 17.232 205.67 17.328C205.958 17.424 206.374 17.488 206.918 17.52V18C206.582 17.968 206.142 17.952 205.598 17.952C205.054 17.936 204.47 17.928 203.846 17.928C203.302 17.928 202.75 17.936 202.19 17.952C201.63 17.952 201.166 17.968 200.798 18ZM190.766 18V17.52C191.31 17.488 191.718 17.424 191.99 17.328C192.278 17.232 192.47 17.04 192.566 16.752C192.662 16.464 192.71 16.032 192.71 15.456V3.552C192.71 2.96 192.662 2.528 192.566 2.256C192.47 1.968 192.278 1.776 191.99 1.68C191.718 1.568 191.31 1.504 190.766 1.488V1.008C191.102 1.024 191.542 1.04 192.086 1.056C192.63 1.072 193.214 1.08 193.838 1.08C194.398 1.08 194.95 1.072 195.494 1.056C196.054 1.04 196.518 1.024 196.886 1.008V1.488C196.342 1.504 195.926 1.568 195.638 1.68C195.366 1.776 195.182 1.968 195.086 2.256C194.99 2.528 194.942 2.96 194.942 3.552V15.456C194.942 16.032 194.99 16.464 195.086 16.752C195.182 17.04 195.366 17.232 195.638 17.328C195.926 17.424 196.342 17.488 196.886 17.52V18C196.518 17.968 196.054 17.952 195.494 17.952C194.95 17.936 194.398 17.928 193.838 17.928C193.214 17.928 192.63 17.936 192.086 17.952C191.542 17.952 191.102 17.968 190.766 18ZM194.102 9.696V9.216H203.582V9.696H194.102Z" fill="black"/>
</svg>
