<svg width="102" height="51" viewBox="0 0 102 51" fill="none" xmlns="http://www.w3.org/2000/svg">
<path d="M14.4228 1.008C14.3588 1.616 14.3108 2.208 14.2788 2.784C14.2628 3.344 14.2548 3.776 14.2548 4.08C14.2548 4.464 14.2628 4.824 14.2788 5.16C14.2948 5.496 14.3108 5.792 14.3268 6.048H13.7748C13.6628 4.928 13.5108 4.048 13.3188 3.408C13.1268 2.752 12.7908 2.28 12.3108 1.992C11.8308 1.704 11.0868 1.56 10.0788 1.56H8.78284V15.216C8.78284 15.856 8.83884 16.336 8.95084 16.656C9.07884 16.976 9.31884 17.192 9.67084 17.304C10.0228 17.416 10.5348 17.488 11.2068 17.52V18C10.7908 17.968 10.2628 17.952 9.62284 17.952C8.98284 17.936 8.33484 17.928 7.67884 17.928C6.95884 17.928 6.27884 17.936 5.63884 17.952C5.01484 17.952 4.51084 17.968 4.12684 18V17.52C4.79884 17.488 5.31084 17.416 5.66284 17.304C6.01484 17.192 6.24684 16.976 6.35884 16.656C6.48684 16.336 6.55084 15.856 6.55084 15.216V1.56H5.25484C4.26284 1.56 3.51884 1.704 3.02284 1.992C2.54284 2.28 2.20684 2.752 2.01484 3.408C1.82284 4.048 1.67084 4.928 1.55884 6.048H1.00684C1.03884 5.792 1.05484 5.496 1.05484 5.16C1.07084 4.824 1.07884 4.464 1.07884 4.08C1.07884 3.776 1.06284 3.344 1.03084 2.784C1.01484 2.208 0.974844 1.616 0.910844 1.008C1.58284 1.024 2.31084 1.04 3.09484 1.056C3.89484 1.072 4.69484 1.08 5.49484 1.08C6.29484 1.08 7.02284 1.08 7.67884 1.08C8.33484 1.08 9.05484 1.08 9.83884 1.08C10.6388 1.08 11.4388 1.072 12.2388 1.056C13.0388 1.04 13.7668 1.024 14.4228 1.008ZM26.1611 18V17.52C26.7051 17.488 27.1131 17.424 27.3851 17.328C27.6731 17.232 27.8651 17.04 27.9611 16.752C28.0571 16.464 28.1051 16.032 28.1051 15.456V3.552C28.1051 2.96 28.0571 2.528 27.9611 2.256C27.8651 1.968 27.6731 1.776 27.3851 1.68C27.1131 1.568 26.7051 1.504 26.1611 1.488V1.008C26.5291 1.024 26.9931 1.04 27.5531 1.056C28.1131 1.072 28.6651 1.08 29.2091 1.08C29.8331 1.08 30.4171 1.072 30.9611 1.056C31.5051 1.04 31.9451 1.024 32.2811 1.008V1.488C31.7371 1.504 31.3211 1.568 31.0331 1.68C30.7611 1.776 30.5771 1.968 30.4811 2.256C30.3851 2.528 30.3371 2.96 30.3371 3.552V15.456C30.3371 16.032 30.3851 16.464 30.4811 16.752C30.5771 17.04 30.7611 17.232 31.0331 17.328C31.3211 17.424 31.7371 17.488 32.2811 17.52V18C31.9451 17.968 31.5051 17.952 30.9611 17.952C30.4171 17.936 29.8331 17.928 29.2091 17.928C28.6651 17.928 28.1131 17.936 27.5531 17.952C26.9931 17.952 26.5291 17.968 26.1611 18ZM16.1291 18V17.52C16.6731 17.488 17.0811 17.424 17.3531 17.328C17.6411 17.232 17.8331 17.04 17.9291 16.752C18.0251 16.464 18.0731 16.032 18.0731 15.456V3.552C18.0731 2.96 18.0251 2.528 17.9291 2.256C17.8331 1.968 17.6411 1.776 17.3531 1.68C17.0811 1.568 16.6731 1.504 16.1291 1.488V1.008C16.4651 1.024 16.9051 1.04 17.4491 1.056C17.9931 1.072 18.5771 1.08 19.2011 1.08C19.7611 1.08 20.3131 1.072 20.8571 1.056C21.4171 1.04 21.8811 1.024 22.2491 1.008V1.488C21.7051 1.504 21.2891 1.568 21.0011 1.68C20.7291 1.776 20.5451 1.968 20.4491 2.256C20.3531 2.528 20.3051 2.96 20.3051 3.552V15.456C20.3051 16.032 20.3531 16.464 20.4491 16.752C20.5451 17.04 20.7291 17.232 21.0011 17.328C21.2891 17.424 21.7051 17.488 22.2491 17.52V18C21.8811 17.968 21.4171 17.952 20.8571 17.952C20.3131 17.936 19.7611 17.928 19.2011 17.928C18.5771 17.928 17.9931 17.936 17.4491 17.952C16.9051 17.952 16.4651 17.968 16.1291 18ZM19.4651 9.696V9.216H28.9451V9.696H19.4651ZM46.2692 1.008C46.2052 1.568 46.1572 2.112 46.1252 2.64C46.1092 3.168 46.1012 3.568 46.1012 3.84C46.1012 4.128 46.1092 4.408 46.1252 4.68C46.1412 4.936 46.1572 5.152 46.1732 5.328H45.6212C45.5252 4.384 45.3892 3.64 45.2132 3.096C45.0372 2.536 44.7332 2.144 44.3012 1.92C43.8852 1.68 43.2532 1.56 42.4052 1.56H40.4132C39.8692 1.56 39.4532 1.608 39.1652 1.704C38.8932 1.784 38.7092 1.968 38.6132 2.256C38.5172 2.528 38.4692 2.96 38.4692 3.552V15.456C38.4692 16.032 38.5172 16.464 38.6132 16.752C38.7092 17.04 38.8932 17.232 39.1652 17.328C39.4532 17.408 39.8692 17.448 40.4132 17.448H42.1652C43.1732 17.448 43.9332 17.312 44.4452 17.04C44.9732 16.768 45.3492 16.328 45.5732 15.72C45.8132 15.096 45.9892 14.256 46.1012 13.2H46.6532C46.6052 13.632 46.5812 14.208 46.5812 14.928C46.5812 15.232 46.5892 15.672 46.6052 16.248C46.6372 16.808 46.6852 17.392 46.7492 18C45.9332 17.968 45.0132 17.952 43.9892 17.952C42.9652 17.936 42.0532 17.928 41.2532 17.928C40.9012 17.928 40.4452 17.928 39.8852 17.928C39.3412 17.928 38.7492 17.936 38.1092 17.952C37.4692 17.952 36.8212 17.96 36.1652 17.976C35.5092 17.976 34.8852 17.984 34.2932 18V17.52C34.8372 17.488 35.2452 17.424 35.5172 17.328C35.8052 17.232 35.9972 17.04 36.0932 16.752C36.1892 16.464 36.2372 16.032 36.2372 15.456V3.552C36.2372 2.96 36.1892 2.528 36.0932 2.256C35.9972 1.968 35.8052 1.776 35.5172 1.68C35.2452 1.568 34.8372 1.504 34.2932 1.488V1.008C34.8852 1.024 35.5092 1.04 36.1652 1.056C36.8212 1.056 37.4692 1.064 38.1092 1.08C38.7492 1.08 39.3412 1.08 39.8852 1.08C40.4452 1.08 40.9012 1.08 41.2532 1.08C41.9892 1.08 42.8212 1.08 43.7492 1.08C44.6932 1.064 45.5332 1.04 46.2692 1.008ZM42.1412 9.216C42.1412 9.216 42.1412 9.296 42.1412 9.456C42.1412 9.616 42.1412 9.696 42.1412 9.696H37.7492C37.7492 9.696 37.7492 9.616 37.7492 9.456C37.7492 9.296 37.7492 9.216 37.7492 9.216H42.1412ZM42.8372 6.048C42.7732 6.96 42.7412 7.656 42.7412 8.136C42.7572 8.616 42.7652 9.056 42.7652 9.456C42.7652 9.856 42.7732 10.296 42.7892 10.776C42.8052 11.256 42.8452 11.952 42.9092 12.864H42.3572C42.2932 12.352 42.2132 11.856 42.1172 11.376C42.0372 10.88 41.8452 10.48 41.5412 10.176C41.2532 9.856 40.7572 9.696 40.0532 9.696V9.216C40.5812 9.216 40.9812 9.112 41.2532 8.904C41.5412 8.68 41.7492 8.4 41.8772 8.064C42.0052 7.728 42.0932 7.384 42.1412 7.032C42.1892 6.664 42.2372 6.336 42.2852 6.048H42.8372ZM74.8578 1.008V1.488C74.5538 1.552 74.2178 1.736 73.8498 2.04C73.4818 2.328 73.1858 2.84 72.9618 3.576L68.4258 18.12C68.3938 18.12 68.3618 18.12 68.3298 18.12C68.2978 18.12 68.2658 18.12 68.2338 18.12C68.2018 18.12 68.1698 18.12 68.1378 18.12C68.1058 18.12 68.0738 18.12 68.0418 18.12L62.9538 3.024C62.7458 2.4 62.5138 1.992 62.2578 1.8C62.0018 1.608 61.7618 1.504 61.5378 1.488V1.008C61.8258 1.024 62.1858 1.04 62.6178 1.056C63.0498 1.072 63.4658 1.08 63.8658 1.08C64.4898 1.08 65.0738 1.072 65.6178 1.056C66.1618 1.04 66.6018 1.024 66.9378 1.008V1.488C66.4578 1.504 66.0738 1.552 65.7858 1.632C65.5138 1.712 65.3538 1.888 65.3058 2.16C65.2738 2.432 65.3538 2.88 65.5458 3.504L69.1218 14.568L68.7858 14.856L71.9538 4.896C72.2418 4.016 72.3698 3.336 72.3378 2.856C72.3218 2.36 72.1458 2.016 71.8098 1.824C71.4738 1.616 70.9698 1.504 70.2978 1.488V1.008C70.7618 1.024 71.2338 1.04 71.7138 1.056C72.1938 1.072 72.6418 1.08 73.0578 1.08C73.4738 1.08 73.8178 1.072 74.0898 1.056C74.3618 1.04 74.6178 1.024 74.8578 1.008ZM58.0818 1.008V1.488C57.6658 1.52 57.3618 1.6 57.1698 1.728C56.9938 1.856 56.9058 2.064 56.9058 2.352C56.9218 2.624 57.0098 3.008 57.1698 3.504L60.8898 14.856L60.2898 15.456L63.6498 4.728L64.0098 5.304L60.0498 18.12C60.0178 18.12 59.9858 18.12 59.9538 18.12C59.9218 18.12 59.8898 18.12 59.8578 18.12C59.8258 18.12 59.7938 18.12 59.7618 18.12C59.7298 18.12 59.6978 18.12 59.6658 18.12L54.5778 3.024C54.3698 2.4 54.1058 1.992 53.7858 1.8C53.4658 1.608 53.1778 1.504 52.9218 1.488V1.008C53.2418 1.024 53.6338 1.04 54.0978 1.056C54.5778 1.072 55.0418 1.08 55.4898 1.08C56.0178 1.08 56.5058 1.072 56.9538 1.056C57.4178 1.04 57.7938 1.024 58.0818 1.008ZM81.209 0.887999L87.065 15.984C87.305 16.592 87.577 17 87.881 17.208C88.185 17.4 88.465 17.504 88.721 17.52V18C88.401 17.968 88.009 17.952 87.545 17.952C87.081 17.936 86.617 17.928 86.153 17.928C85.529 17.928 84.945 17.936 84.401 17.952C83.857 17.952 83.417 17.968 83.081 18V17.52C83.897 17.488 84.417 17.352 84.641 17.112C84.865 16.856 84.817 16.32 84.497 15.504L80.033 3.576L80.417 3.264L76.241 14.112C75.985 14.752 75.833 15.296 75.785 15.744C75.737 16.176 75.777 16.52 75.905 16.776C76.049 17.032 76.281 17.216 76.601 17.328C76.937 17.44 77.353 17.504 77.849 17.52V18C77.401 17.968 76.929 17.952 76.433 17.952C75.953 17.936 75.505 17.928 75.089 17.928C74.689 17.928 74.345 17.936 74.057 17.952C73.785 17.952 73.529 17.968 73.289 18V17.52C73.609 17.44 73.937 17.256 74.273 16.968C74.609 16.664 74.913 16.152 75.185 15.432L80.825 0.887999C80.889 0.887999 80.953 0.887999 81.017 0.887999C81.081 0.887999 81.145 0.887999 81.209 0.887999ZM84.137 11.088V11.568H76.985L77.225 11.088H84.137ZM101.491 1.008V1.488C101.187 1.552 100.883 1.752 100.579 2.088C100.275 2.408 99.9389 2.92 99.5709 3.624L94.7229 13.224H94.3149L88.6989 2.856C88.3789 2.264 88.1069 1.896 87.8829 1.752C87.6749 1.592 87.4829 1.512 87.3069 1.512V1.008C87.6269 1.024 87.9549 1.04 88.2909 1.056C88.6429 1.072 89.0189 1.08 89.4189 1.08C89.9469 1.08 90.5069 1.08 91.0989 1.08C91.7069 1.064 92.2669 1.04 92.7789 1.008V1.512C92.3789 1.512 92.0269 1.56 91.7229 1.656C91.4189 1.752 91.2189 1.928 91.1229 2.184C91.0269 2.44 91.0989 2.8 91.3389 3.264L95.3949 11.04L95.2029 11.184L98.3949 4.824C98.8429 3.944 99.0589 3.264 99.0429 2.784C99.0429 2.304 98.8589 1.976 98.4909 1.8C98.1229 1.608 97.6029 1.504 96.9309 1.488V1.008C97.3949 1.024 97.8669 1.04 98.3469 1.056C98.8269 1.072 99.2749 1.08 99.6909 1.08C100.107 1.08 100.451 1.072 100.723 1.056C100.995 1.04 101.251 1.024 101.491 1.008ZM95.8029 10.704V15.456C95.8029 16.032 95.8509 16.464 95.9469 16.752C96.0429 17.04 96.2269 17.232 96.4989 17.328C96.7869 17.424 97.2029 17.488 97.7469 17.52V18C97.3789 17.968 96.9149 17.952 96.3549 17.952C95.8109 17.936 95.2589 17.928 94.6989 17.928C94.0749 17.928 93.4909 17.936 92.9469 17.952C92.4029 17.952 91.9629 17.968 91.6269 18V17.52C92.1709 17.488 92.5789 17.424 92.8509 17.328C93.1389 17.232 93.3309 17.04 93.4269 16.752C93.5229 16.464 93.5709 16.032 93.5709 15.456V10.536L94.8669 12.024L95.8029 10.704ZM8.75556 32.672C9.81156 32.672 10.6756 32.832 11.3476 33.152C12.0356 33.456 12.6436 33.816 13.1716 34.232C13.4916 34.472 13.7316 34.504 13.8916 34.328C14.0676 34.136 14.1876 33.696 14.2516 33.008H14.8036C14.7716 33.6 14.7476 34.32 14.7316 35.168C14.7156 36.016 14.7076 37.136 14.7076 38.528H14.1556C14.0436 37.84 13.9396 37.296 13.8436 36.896C13.7476 36.48 13.6276 36.128 13.4836 35.84C13.3556 35.552 13.1796 35.264 12.9556 34.976C12.4596 34.32 11.8356 33.848 11.0836 33.56C10.3316 33.256 9.53956 33.104 8.70756 33.104C7.92356 33.104 7.21156 33.304 6.57156 33.704C5.94756 34.088 5.40356 34.648 4.93956 35.384C4.49156 36.12 4.13956 37.008 3.88356 38.048C3.64356 39.088 3.52356 40.256 3.52356 41.552C3.52356 42.896 3.65956 44.088 3.93156 45.128C4.20356 46.152 4.57956 47.016 5.05956 47.72C5.55556 48.424 6.13156 48.96 6.78756 49.328C7.45956 49.68 8.17956 49.856 8.94756 49.856C9.66756 49.856 10.4196 49.712 11.2036 49.424C11.9876 49.136 12.6036 48.672 13.0516 48.032C13.4036 47.568 13.6436 47.064 13.7716 46.52C13.9156 45.976 14.0436 45.216 14.1556 44.24H14.7076C14.7076 45.696 14.7156 46.872 14.7316 47.768C14.7476 48.648 14.7716 49.392 14.8036 50H14.2516C14.1876 49.312 14.0756 48.88 13.9156 48.704C13.7716 48.528 13.5236 48.552 13.1716 48.776C12.5796 49.192 11.9476 49.56 11.2756 49.88C10.6196 50.184 9.77156 50.336 8.73156 50.336C7.21156 50.336 5.87556 49.992 4.72356 49.304C3.58756 48.616 2.69956 47.624 2.05956 46.328C1.43556 45.032 1.12356 43.472 1.12356 41.648C1.12356 39.856 1.45156 38.288 2.10756 36.944C2.76356 35.6 3.65956 34.552 4.79556 33.8C5.94756 33.048 7.26756 32.672 8.75556 32.672ZM27.415 50V49.52C27.959 49.488 28.367 49.424 28.639 49.328C28.927 49.232 29.119 49.04 29.215 48.752C29.311 48.464 29.359 48.032 29.359 47.456V35.552C29.359 34.96 29.311 34.528 29.215 34.256C29.119 33.968 28.927 33.776 28.639 33.68C28.367 33.568 27.959 33.504 27.415 33.488V33.008C27.783 33.024 28.247 33.04 28.807 33.056C29.367 33.072 29.919 33.08 30.463 33.08C31.087 33.08 31.671 33.072 32.215 33.056C32.759 33.04 33.199 33.024 33.535 33.008V33.488C32.991 33.504 32.575 33.568 32.287 33.68C32.015 33.776 31.831 33.968 31.735 34.256C31.639 34.528 31.591 34.96 31.591 35.552V47.456C31.591 48.032 31.639 48.464 31.735 48.752C31.831 49.04 32.015 49.232 32.287 49.328C32.575 49.424 32.991 49.488 33.535 49.52V50C33.199 49.968 32.759 49.952 32.215 49.952C31.671 49.936 31.087 49.928 30.463 49.928C29.919 49.928 29.367 49.936 28.807 49.952C28.247 49.952 27.783 49.968 27.415 50ZM17.383 50V49.52C17.927 49.488 18.335 49.424 18.607 49.328C18.895 49.232 19.087 49.04 19.183 48.752C19.279 48.464 19.327 48.032 19.327 47.456V35.552C19.327 34.96 19.279 34.528 19.183 34.256C19.087 33.968 18.895 33.776 18.607 33.68C18.335 33.568 17.927 33.504 17.383 33.488V33.008C17.719 33.024 18.159 33.04 18.703 33.056C19.247 33.072 19.831 33.08 20.455 33.08C21.015 33.08 21.567 33.072 22.111 33.056C22.671 33.04 23.135 33.024 23.503 33.008V33.488C22.959 33.504 22.543 33.568 22.255 33.68C21.983 33.776 21.799 33.968 21.703 34.256C21.607 34.528 21.559 34.96 21.559 35.552V47.456C21.559 48.032 21.607 48.464 21.703 48.752C21.799 49.04 21.983 49.232 22.255 49.328C22.543 49.424 22.959 49.488 23.503 49.52V50C23.135 49.968 22.671 49.952 22.111 49.952C21.567 49.936 21.015 49.928 20.455 49.928C19.831 49.928 19.247 49.936 18.703 49.952C18.159 49.952 17.719 49.968 17.383 50ZM20.719 41.696V41.216H30.199V41.696H20.719ZM50.2591 33.008V33.488C49.7151 33.504 49.2991 33.584 49.0111 33.728C48.7391 33.872 48.5551 34.104 48.4591 34.424C48.3631 34.744 48.3151 35.2 48.3151 35.792V43.016C48.3151 44.136 48.2431 45.112 48.0991 45.944C47.9551 46.776 47.6991 47.496 47.3311 48.104C46.9311 48.776 46.3471 49.32 45.5791 49.736C44.8111 50.136 43.9311 50.336 42.9391 50.336C42.1711 50.336 41.4351 50.24 40.7311 50.048C40.0431 49.872 39.4351 49.536 38.9071 49.04C38.4431 48.592 38.0751 48.12 37.8031 47.624C37.5471 47.128 37.3711 46.52 37.2751 45.8C37.1791 45.08 37.1311 44.176 37.1311 43.088V35.552C37.1311 34.96 37.0831 34.528 36.9871 34.256C36.8911 33.968 36.6991 33.776 36.4111 33.68C36.1391 33.568 35.7311 33.504 35.1871 33.488V33.008C35.5231 33.024 35.9631 33.04 36.5071 33.056C37.0511 33.072 37.6351 33.08 38.2591 33.08C38.8191 33.08 39.3711 33.072 39.9151 33.056C40.4751 33.04 40.9391 33.024 41.3071 33.008V33.488C40.7631 33.504 40.3471 33.568 40.0591 33.68C39.7871 33.776 39.6031 33.968 39.5071 34.256C39.4111 34.528 39.3631 34.96 39.3631 35.552V43.496C39.3631 44.312 39.4031 45.088 39.4831 45.824C39.5631 46.544 39.7231 47.184 39.9631 47.744C40.2191 48.288 40.6031 48.72 41.1151 49.04C41.6271 49.344 42.3071 49.496 43.1551 49.496C44.3711 49.496 45.3071 49.232 45.9631 48.704C46.6351 48.16 47.0991 47.416 47.3551 46.472C47.6271 45.528 47.7631 44.464 47.7631 43.28V35.792C47.7631 35.2 47.6911 34.744 47.5471 34.424C47.4191 34.104 47.1951 33.872 46.8751 33.728C46.5551 33.584 46.1231 33.504 45.5791 33.488V33.008C45.8671 33.024 46.2431 33.04 46.7071 33.056C47.1871 33.072 47.6271 33.08 48.0271 33.08C48.4431 33.08 48.8511 33.072 49.2511 33.056C49.6671 33.04 50.0031 33.024 50.2591 33.008ZM51.9064 33.008C52.2424 33.024 52.6824 33.04 53.2264 33.056C53.7704 33.072 54.3064 33.08 54.8344 33.08C55.5864 33.08 56.3064 33.072 56.9944 33.056C57.6824 33.04 58.1704 33.032 58.4584 33.032C59.7544 33.032 60.8264 33.216 61.6744 33.584C62.5384 33.952 63.1784 34.456 63.5944 35.096C64.0264 35.72 64.2424 36.424 64.2424 37.208C64.2424 37.688 64.1464 38.2 63.9544 38.744C63.7624 39.288 63.4264 39.8 62.9464 40.28C62.4824 40.76 61.8424 41.16 61.0264 41.48C60.2104 41.784 59.1784 41.936 57.9304 41.936H55.6264V41.456H57.6904C58.8264 41.456 59.6904 41.28 60.2824 40.928C60.8904 40.56 61.2984 40.08 61.5064 39.488C61.7304 38.88 61.8424 38.208 61.8424 37.472C61.8424 36.208 61.5384 35.232 60.9304 34.544C60.3384 33.84 59.3144 33.488 57.8584 33.488C57.1224 33.488 56.6424 33.624 56.4184 33.896C56.1944 34.168 56.0824 34.72 56.0824 35.552V47.456C56.0824 48.032 56.1304 48.464 56.2264 48.752C56.3224 49.04 56.5064 49.232 56.7784 49.328C57.0664 49.424 57.4824 49.488 58.0264 49.52V50C57.6584 49.968 57.1944 49.952 56.6344 49.952C56.0904 49.936 55.5384 49.928 54.9784 49.928C54.3544 49.928 53.7704 49.936 53.2264 49.952C52.6824 49.952 52.2424 49.968 51.9064 50V49.52C52.4504 49.488 52.8584 49.424 53.1304 49.328C53.4184 49.232 53.6104 49.04 53.7064 48.752C53.8024 48.464 53.8504 48.032 53.8504 47.456V35.552C53.8504 34.96 53.8024 34.528 53.7064 34.256C53.6104 33.968 53.4184 33.776 53.1304 33.68C52.8584 33.568 52.4504 33.504 51.9064 33.488V33.008ZM55.7224 41.528C56.5864 41.56 57.2664 41.6 57.7624 41.648C58.2584 41.68 58.6584 41.712 58.9624 41.744C59.2824 41.776 59.5864 41.816 59.8744 41.864C60.9464 42.04 61.7144 42.368 62.1784 42.848C62.6584 43.312 63.0104 44.04 63.2344 45.032L63.8344 47.48C63.9944 48.184 64.1544 48.696 64.3144 49.016C64.4904 49.32 64.7544 49.464 65.1064 49.448C65.3784 49.432 65.6024 49.344 65.7784 49.184C65.9704 49.024 66.1704 48.808 66.3784 48.536L66.7384 48.8C66.4024 49.296 66.0504 49.68 65.6824 49.952C65.3304 50.208 64.8264 50.336 64.1704 50.336C63.5784 50.336 63.0584 50.16 62.6104 49.808C62.1624 49.456 61.8264 48.768 61.6024 47.744L61.0744 45.344C60.9304 44.656 60.7624 44.064 60.5704 43.568C60.3944 43.056 60.1384 42.656 59.8024 42.368C59.4824 42.08 59.0024 41.936 58.3624 41.936H55.7704L55.7224 41.528ZM75.3649 32.672C76.4209 32.672 77.2849 32.832 77.9569 33.152C78.6449 33.456 79.2529 33.816 79.7809 34.232C80.1009 34.472 80.3409 34.504 80.5009 34.328C80.6769 34.136 80.7969 33.696 80.8609 33.008H81.4129C81.3809 33.6 81.3569 34.32 81.3409 35.168C81.3249 36.016 81.3169 37.136 81.3169 38.528H80.7649C80.6529 37.84 80.5489 37.296 80.4529 36.896C80.3569 36.48 80.2369 36.128 80.0929 35.84C79.9649 35.552 79.7889 35.264 79.5649 34.976C79.0689 34.32 78.4449 33.848 77.6929 33.56C76.9409 33.256 76.1489 33.104 75.3169 33.104C74.5329 33.104 73.8209 33.304 73.1809 33.704C72.5569 34.088 72.0129 34.648 71.5489 35.384C71.1009 36.12 70.7489 37.008 70.4929 38.048C70.2529 39.088 70.1329 40.256 70.1329 41.552C70.1329 42.896 70.2689 44.088 70.5409 45.128C70.8129 46.152 71.1889 47.016 71.6689 47.72C72.1649 48.424 72.7409 48.96 73.3969 49.328C74.0689 49.68 74.7889 49.856 75.5569 49.856C76.2769 49.856 77.0289 49.712 77.8129 49.424C78.5969 49.136 79.2129 48.672 79.6609 48.032C80.0129 47.568 80.2529 47.064 80.3809 46.52C80.5249 45.976 80.6529 45.216 80.7649 44.24H81.3169C81.3169 45.696 81.3249 46.872 81.3409 47.768C81.3569 48.648 81.3809 49.392 81.4129 50H80.8609C80.7969 49.312 80.6849 48.88 80.5249 48.704C80.3809 48.528 80.1329 48.552 79.7809 48.776C79.1889 49.192 78.5569 49.56 77.8849 49.88C77.2289 50.184 76.3809 50.336 75.3409 50.336C73.8209 50.336 72.4849 49.992 71.3329 49.304C70.1969 48.616 69.3089 47.624 68.6689 46.328C68.0449 45.032 67.7329 43.472 67.7329 41.648C67.7329 39.856 68.0609 38.288 68.7169 36.944C69.3729 35.6 70.2689 34.552 71.4049 33.8C72.5569 33.048 73.8769 32.672 75.3649 32.672ZM94.0244 50V49.52C94.5684 49.488 94.9764 49.424 95.2484 49.328C95.5364 49.232 95.7284 49.04 95.8244 48.752C95.9204 48.464 95.9684 48.032 95.9684 47.456V35.552C95.9684 34.96 95.9204 34.528 95.8244 34.256C95.7284 33.968 95.5364 33.776 95.2484 33.68C94.9764 33.568 94.5684 33.504 94.0244 33.488V33.008C94.3924 33.024 94.8564 33.04 95.4164 33.056C95.9764 33.072 96.5284 33.08 97.0724 33.08C97.6964 33.08 98.2804 33.072 98.8244 33.056C99.3684 33.04 99.8084 33.024 100.144 33.008V33.488C99.6004 33.504 99.1844 33.568 98.8964 33.68C98.6244 33.776 98.4404 33.968 98.3444 34.256C98.2484 34.528 98.2004 34.96 98.2004 35.552V47.456C98.2004 48.032 98.2484 48.464 98.3444 48.752C98.4404 49.04 98.6244 49.232 98.8964 49.328C99.1844 49.424 99.6004 49.488 100.144 49.52V50C99.8084 49.968 99.3684 49.952 98.8244 49.952C98.2804 49.936 97.6964 49.928 97.0724 49.928C96.5284 49.928 95.9764 49.936 95.4164 49.952C94.8564 49.952 94.3924 49.968 94.0244 50ZM83.9924 50V49.52C84.5364 49.488 84.9444 49.424 85.2164 49.328C85.5044 49.232 85.6964 49.04 85.7924 48.752C85.8884 48.464 85.9364 48.032 85.9364 47.456V35.552C85.9364 34.96 85.8884 34.528 85.7924 34.256C85.6964 33.968 85.5044 33.776 85.2164 33.68C84.9444 33.568 84.5364 33.504 83.9924 33.488V33.008C84.3284 33.024 84.7684 33.04 85.3124 33.056C85.8564 33.072 86.4404 33.08 87.0644 33.08C87.6244 33.08 88.1764 33.072 88.7204 33.056C89.2804 33.04 89.7444 33.024 90.1124 33.008V33.488C89.5684 33.504 89.1524 33.568 88.8644 33.68C88.5924 33.776 88.4084 33.968 88.3124 34.256C88.2164 34.528 88.1684 34.96 88.1684 35.552V47.456C88.1684 48.032 88.2164 48.464 88.3124 48.752C88.4084 49.04 88.5924 49.232 88.8644 49.328C89.1524 49.424 89.5684 49.488 90.1124 49.52V50C89.7444 49.968 89.2804 49.952 88.7204 49.952C88.1764 49.936 87.6244 49.928 87.0644 49.928C86.4404 49.928 85.8564 49.936 85.3124 49.952C84.7684 49.952 84.3284 49.968 83.9924 50ZM87.3284 41.696V41.216H96.8084V41.696H87.3284Z" fill="black"/>
</svg>
