<svg width="175" height="66" viewBox="0 0 175 66" fill="none" xmlns="http://www.w3.org/2000/svg">
<path d="M87.4209 7.008C87.3569 7.616 87.3089 8.208 87.2769 8.784C87.2609 9.344 87.2529 9.776 87.2529 10.08C87.2529 10.464 87.2609 10.824 87.2769 11.16C87.2929 11.496 87.3089 11.792 87.3249 12.048H86.7729C86.6609 10.928 86.5089 10.048 86.3169 9.408C86.1249 8.752 85.7889 8.28 85.3089 7.992C84.8289 7.704 84.0849 7.56 83.0769 7.56H81.7809V21.216C81.7809 21.856 81.8369 22.336 81.9489 22.656C82.0769 22.976 82.3169 23.192 82.6689 23.304C83.0209 23.416 83.5329 23.488 84.2049 23.52V24C83.7889 23.968 83.2609 23.952 82.6209 23.952C81.9809 23.936 81.3329 23.928 80.6769 23.928C79.9569 23.928 79.2769 23.936 78.6369 23.952C78.0129 23.952 77.5089 23.968 77.1249 24V23.52C77.7969 23.488 78.3089 23.416 78.6609 23.304C79.0129 23.192 79.2449 22.976 79.3569 22.656C79.4849 22.336 79.5489 21.856 79.5489 21.216V7.56H78.2529C77.2609 7.56 76.5169 7.704 76.0209 7.992C75.5409 8.28 75.2049 8.752 75.0129 9.408C74.8209 10.048 74.6689 10.928 74.5569 12.048H74.0049C74.0369 11.792 74.0529 11.496 74.0529 11.16C74.0689 10.824 74.0769 10.464 74.0769 10.08C74.0769 9.776 74.0609 9.344 74.0289 8.784C74.0129 8.208 73.9729 7.616 73.9089 7.008C74.5809 7.024 75.3089 7.04 76.0929 7.056C76.8929 7.072 77.6929 7.08 78.4929 7.08C79.2929 7.08 80.0209 7.08 80.6769 7.08C81.3329 7.08 82.0529 7.08 82.8369 7.08C83.6369 7.08 84.4369 7.072 85.2369 7.056C86.0369 7.04 86.7649 7.024 87.4209 7.008ZM99.1591 24V23.52C99.7031 23.488 100.111 23.424 100.383 23.328C100.671 23.232 100.863 23.04 100.959 22.752C101.055 22.464 101.103 22.032 101.103 21.456V9.552C101.103 8.96 101.055 8.528 100.959 8.256C100.863 7.968 100.671 7.776 100.383 7.68C100.111 7.568 99.7031 7.504 99.1591 7.488V7.008C99.5271 7.024 99.9911 7.04 100.551 7.056C101.111 7.072 101.663 7.08 102.207 7.08C102.831 7.08 103.415 7.072 103.959 7.056C104.503 7.04 104.943 7.024 105.279 7.008V7.488C104.735 7.504 104.319 7.568 104.031 7.68C103.759 7.776 103.575 7.968 103.479 8.256C103.383 8.528 103.335 8.96 103.335 9.552V21.456C103.335 22.032 103.383 22.464 103.479 22.752C103.575 23.04 103.759 23.232 104.031 23.328C104.319 23.424 104.735 23.488 105.279 23.52V24C104.943 23.968 104.503 23.952 103.959 23.952C103.415 23.936 102.831 23.928 102.207 23.928C101.663 23.928 101.111 23.936 100.551 23.952C99.9911 23.952 99.5271 23.968 99.1591 24ZM89.1271 24V23.52C89.6711 23.488 90.0791 23.424 90.3511 23.328C90.6391 23.232 90.8311 23.04 90.9271 22.752C91.0231 22.464 91.0711 22.032 91.0711 21.456V9.552C91.0711 8.96 91.0231 8.528 90.9271 8.256C90.8311 7.968 90.6391 7.776 90.3511 7.68C90.0791 7.568 89.6711 7.504 89.1271 7.488V7.008C89.4631 7.024 89.9031 7.04 90.4471 7.056C90.9911 7.072 91.5751 7.08 92.1991 7.08C92.7591 7.08 93.3111 7.072 93.8551 7.056C94.4151 7.04 94.8791 7.024 95.2471 7.008V7.488C94.7031 7.504 94.2871 7.568 93.9991 7.68C93.7271 7.776 93.5431 7.968 93.4471 8.256C93.3511 8.528 93.3031 8.96 93.3031 9.552V21.456C93.3031 22.032 93.3511 22.464 93.4471 22.752C93.5431 23.04 93.7271 23.232 93.9991 23.328C94.2871 23.424 94.7031 23.488 95.2471 23.52V24C94.8791 23.968 94.4151 23.952 93.8551 23.952C93.3111 23.936 92.7591 23.928 92.1991 23.928C91.5751 23.928 90.9911 23.936 90.4471 23.952C89.9031 23.952 89.4631 23.968 89.1271 24ZM92.4631 15.696V15.216H101.943V15.696H92.4631ZM119.267 7.008C119.203 7.568 119.155 8.112 119.123 8.64C119.107 9.168 119.099 9.568 119.099 9.84C119.099 10.128 119.107 10.408 119.123 10.68C119.139 10.936 119.155 11.152 119.171 11.328H118.619C118.523 10.384 118.387 9.64 118.211 9.096C118.035 8.536 117.731 8.144 117.299 7.92C116.883 7.68 116.251 7.56 115.403 7.56H113.411C112.867 7.56 112.451 7.608 112.163 7.704C111.891 7.784 111.707 7.968 111.611 8.256C111.515 8.528 111.467 8.96 111.467 9.552V21.456C111.467 22.032 111.515 22.464 111.611 22.752C111.707 23.04 111.891 23.232 112.163 23.328C112.451 23.408 112.867 23.448 113.411 23.448H115.163C116.171 23.448 116.931 23.312 117.443 23.04C117.971 22.768 118.347 22.328 118.571 21.72C118.811 21.096 118.987 20.256 119.099 19.2H119.651C119.603 19.632 119.579 20.208 119.579 20.928C119.579 21.232 119.587 21.672 119.603 22.248C119.635 22.808 119.683 23.392 119.747 24C118.931 23.968 118.011 23.952 116.987 23.952C115.963 23.936 115.051 23.928 114.251 23.928C113.899 23.928 113.443 23.928 112.883 23.928C112.339 23.928 111.747 23.936 111.107 23.952C110.467 23.952 109.819 23.96 109.163 23.976C108.507 23.976 107.883 23.984 107.291 24V23.52C107.835 23.488 108.243 23.424 108.515 23.328C108.803 23.232 108.995 23.04 109.091 22.752C109.187 22.464 109.235 22.032 109.235 21.456V9.552C109.235 8.96 109.187 8.528 109.091 8.256C108.995 7.968 108.803 7.776 108.515 7.68C108.243 7.568 107.835 7.504 107.291 7.488V7.008C107.883 7.024 108.507 7.04 109.163 7.056C109.819 7.056 110.467 7.064 111.107 7.08C111.747 7.08 112.339 7.08 112.883 7.08C113.443 7.08 113.899 7.08 114.251 7.08C114.987 7.08 115.819 7.08 116.747 7.08C117.691 7.064 118.531 7.04 119.267 7.008ZM115.139 15.216C115.139 15.216 115.139 15.296 115.139 15.456C115.139 15.616 115.139 15.696 115.139 15.696H110.747C110.747 15.696 110.747 15.616 110.747 15.456C110.747 15.296 110.747 15.216 110.747 15.216H115.139ZM115.835 12.048C115.771 12.96 115.739 13.656 115.739 14.136C115.755 14.616 115.763 15.056 115.763 15.456C115.763 15.856 115.771 16.296 115.787 16.776C115.803 17.256 115.843 17.952 115.907 18.864H115.355C115.291 18.352 115.211 17.856 115.115 17.376C115.035 16.88 114.843 16.48 114.539 16.176C114.251 15.856 113.755 15.696 113.051 15.696V15.216C113.579 15.216 113.979 15.112 114.251 14.904C114.539 14.68 114.747 14.4 114.875 14.064C115.003 13.728 115.091 13.384 115.139 13.032C115.187 12.664 115.235 12.336 115.283 12.048H115.835ZM147.856 7.008V7.488C147.552 7.552 147.216 7.736 146.848 8.04C146.48 8.328 146.184 8.84 145.96 9.576L141.424 24.12C141.392 24.12 141.36 24.12 141.328 24.12C141.296 24.12 141.264 24.12 141.232 24.12C141.2 24.12 141.168 24.12 141.136 24.12C141.104 24.12 141.072 24.12 141.04 24.12L135.952 9.024C135.744 8.4 135.512 7.992 135.256 7.8C135 7.608 134.76 7.504 134.536 7.488V7.008C134.824 7.024 135.184 7.04 135.616 7.056C136.048 7.072 136.464 7.08 136.864 7.08C137.488 7.08 138.072 7.072 138.616 7.056C139.16 7.04 139.6 7.024 139.936 7.008V7.488C139.456 7.504 139.072 7.552 138.784 7.632C138.512 7.712 138.352 7.888 138.304 8.16C138.272 8.432 138.352 8.88 138.544 9.504L142.12 20.568L141.784 20.856L144.952 10.896C145.24 10.016 145.368 9.336 145.336 8.856C145.32 8.36 145.144 8.016 144.808 7.824C144.472 7.616 143.968 7.504 143.296 7.488V7.008C143.76 7.024 144.232 7.04 144.712 7.056C145.192 7.072 145.64 7.08 146.056 7.08C146.472 7.08 146.816 7.072 147.088 7.056C147.36 7.04 147.616 7.024 147.856 7.008ZM131.08 7.008V7.488C130.664 7.52 130.36 7.6 130.168 7.728C129.992 7.856 129.904 8.064 129.904 8.352C129.92 8.624 130.008 9.008 130.168 9.504L133.888 20.856L133.288 21.456L136.648 10.728L137.008 11.304L133.048 24.12C133.016 24.12 132.984 24.12 132.952 24.12C132.92 24.12 132.888 24.12 132.856 24.12C132.824 24.12 132.792 24.12 132.76 24.12C132.728 24.12 132.696 24.12 132.664 24.12L127.576 9.024C127.368 8.4 127.104 7.992 126.784 7.8C126.464 7.608 126.176 7.504 125.92 7.488V7.008C126.24 7.024 126.632 7.04 127.096 7.056C127.576 7.072 128.04 7.08 128.488 7.08C129.016 7.08 129.504 7.072 129.952 7.056C130.416 7.04 130.792 7.024 131.08 7.008ZM154.207 6.888L160.063 21.984C160.303 22.592 160.575 23 160.879 23.208C161.183 23.4 161.463 23.504 161.719 23.52V24C161.399 23.968 161.007 23.952 160.543 23.952C160.079 23.936 159.615 23.928 159.151 23.928C158.527 23.928 157.943 23.936 157.399 23.952C156.855 23.952 156.415 23.968 156.079 24V23.52C156.895 23.488 157.415 23.352 157.639 23.112C157.863 22.856 157.815 22.32 157.495 21.504L153.031 9.576L153.415 9.264L149.239 20.112C148.983 20.752 148.831 21.296 148.783 21.744C148.735 22.176 148.775 22.52 148.903 22.776C149.047 23.032 149.279 23.216 149.599 23.328C149.935 23.44 150.351 23.504 150.847 23.52V24C150.399 23.968 149.927 23.952 149.431 23.952C148.951 23.936 148.503 23.928 148.087 23.928C147.687 23.928 147.343 23.936 147.055 23.952C146.783 23.952 146.527 23.968 146.287 24V23.52C146.607 23.44 146.935 23.256 147.271 22.968C147.607 22.664 147.911 22.152 148.183 21.432L153.823 6.888C153.887 6.888 153.951 6.888 154.015 6.888C154.079 6.888 154.143 6.888 154.207 6.888ZM157.135 17.088V17.568H149.983L150.223 17.088H157.135ZM174.489 7.008V7.488C174.185 7.552 173.881 7.752 173.577 8.088C173.273 8.408 172.937 8.92 172.569 9.624L167.721 19.224H167.313L161.697 8.856C161.377 8.264 161.105 7.896 160.881 7.752C160.673 7.592 160.481 7.512 160.305 7.512V7.008C160.625 7.024 160.953 7.04 161.289 7.056C161.641 7.072 162.017 7.08 162.417 7.08C162.945 7.08 163.505 7.08 164.097 7.08C164.705 7.064 165.265 7.04 165.777 7.008V7.512C165.377 7.512 165.025 7.56 164.721 7.656C164.417 7.752 164.217 7.928 164.121 8.184C164.025 8.44 164.097 8.8 164.337 9.264L168.393 17.04L168.201 17.184L171.393 10.824C171.841 9.944 172.057 9.264 172.041 8.784C172.041 8.304 171.857 7.976 171.489 7.8C171.121 7.608 170.601 7.504 169.929 7.488V7.008C170.393 7.024 170.865 7.04 171.345 7.056C171.825 7.072 172.273 7.08 172.689 7.08C173.105 7.08 173.449 7.072 173.721 7.056C173.993 7.04 174.249 7.024 174.489 7.008ZM168.801 16.704V21.456C168.801 22.032 168.849 22.464 168.945 22.752C169.041 23.04 169.225 23.232 169.497 23.328C169.785 23.424 170.201 23.488 170.745 23.52V24C170.377 23.968 169.913 23.952 169.353 23.952C168.809 23.936 168.257 23.928 167.697 23.928C167.073 23.928 166.489 23.936 165.945 23.952C165.401 23.952 164.961 23.968 164.625 24V23.52C165.169 23.488 165.577 23.424 165.849 23.328C166.137 23.232 166.329 23.04 166.425 22.752C166.521 22.464 166.569 22.032 166.569 21.456V16.536L167.865 18.024L168.801 16.704ZM81.7536 38.672C82.8096 38.672 83.6736 38.832 84.3456 39.152C85.0336 39.456 85.6416 39.816 86.1696 40.232C86.4896 40.472 86.7296 40.504 86.8896 40.328C87.0656 40.136 87.1856 39.696 87.2496 39.008H87.8016C87.7696 39.6 87.7456 40.32 87.7296 41.168C87.7136 42.016 87.7056 43.136 87.7056 44.528H87.1536C87.0416 43.84 86.9376 43.296 86.8416 42.896C86.7456 42.48 86.6256 42.128 86.4816 41.84C86.3536 41.552 86.1776 41.264 85.9536 40.976C85.4576 40.32 84.8336 39.848 84.0816 39.56C83.3296 39.256 82.5376 39.104 81.7056 39.104C80.9216 39.104 80.2096 39.304 79.5696 39.704C78.9456 40.088 78.4016 40.648 77.9376 41.384C77.4896 42.12 77.1376 43.008 76.8816 44.048C76.6416 45.088 76.5216 46.256 76.5216 47.552C76.5216 48.896 76.6576 50.088 76.9296 51.128C77.2016 52.152 77.5776 53.016 78.0576 53.72C78.5536 54.424 79.1296 54.96 79.7856 55.328C80.4576 55.68 81.1776 55.856 81.9456 55.856C82.6656 55.856 83.4176 55.712 84.2016 55.424C84.9856 55.136 85.6016 54.672 86.0496 54.032C86.4016 53.568 86.6416 53.064 86.7696 52.52C86.9136 51.976 87.0416 51.216 87.1536 50.24H87.7056C87.7056 51.696 87.7136 52.872 87.7296 53.768C87.7456 54.648 87.7696 55.392 87.8016 56H87.2496C87.1856 55.312 87.0736 54.88 86.9136 54.704C86.7696 54.528 86.5216 54.552 86.1696 54.776C85.5776 55.192 84.9456 55.56 84.2736 55.88C83.6176 56.184 82.7696 56.336 81.7296 56.336C80.2096 56.336 78.8736 55.992 77.7216 55.304C76.5856 54.616 75.6976 53.624 75.0576 52.328C74.4336 51.032 74.1216 49.472 74.1216 47.648C74.1216 45.856 74.4496 44.288 75.1056 42.944C75.7616 41.6 76.6576 40.552 77.7936 39.8C78.9456 39.048 80.2656 38.672 81.7536 38.672ZM100.413 56V55.52C100.957 55.488 101.365 55.424 101.637 55.328C101.925 55.232 102.117 55.04 102.213 54.752C102.309 54.464 102.357 54.032 102.357 53.456V41.552C102.357 40.96 102.309 40.528 102.213 40.256C102.117 39.968 101.925 39.776 101.637 39.68C101.365 39.568 100.957 39.504 100.413 39.488V39.008C100.781 39.024 101.245 39.04 101.805 39.056C102.365 39.072 102.917 39.08 103.461 39.08C104.085 39.08 104.669 39.072 105.213 39.056C105.757 39.04 106.197 39.024 106.533 39.008V39.488C105.989 39.504 105.573 39.568 105.285 39.68C105.013 39.776 104.829 39.968 104.733 40.256C104.637 40.528 104.589 40.96 104.589 41.552V53.456C104.589 54.032 104.637 54.464 104.733 54.752C104.829 55.04 105.013 55.232 105.285 55.328C105.573 55.424 105.989 55.488 106.533 55.52V56C106.197 55.968 105.757 55.952 105.213 55.952C104.669 55.936 104.085 55.928 103.461 55.928C102.917 55.928 102.365 55.936 101.805 55.952C101.245 55.952 100.781 55.968 100.413 56ZM90.381 56V55.52C90.925 55.488 91.333 55.424 91.605 55.328C91.893 55.232 92.085 55.04 92.181 54.752C92.277 54.464 92.325 54.032 92.325 53.456V41.552C92.325 40.96 92.277 40.528 92.181 40.256C92.085 39.968 91.893 39.776 91.605 39.68C91.333 39.568 90.925 39.504 90.381 39.488V39.008C90.717 39.024 91.157 39.04 91.701 39.056C92.245 39.072 92.829 39.08 93.453 39.08C94.013 39.08 94.565 39.072 95.109 39.056C95.669 39.04 96.133 39.024 96.501 39.008V39.488C95.957 39.504 95.541 39.568 95.253 39.68C94.981 39.776 94.797 39.968 94.701 40.256C94.605 40.528 94.557 40.96 94.557 41.552V53.456C94.557 54.032 94.605 54.464 94.701 54.752C94.797 55.04 94.981 55.232 95.253 55.328C95.541 55.424 95.957 55.488 96.501 55.52V56C96.133 55.968 95.669 55.952 95.109 55.952C94.565 55.936 94.013 55.928 93.453 55.928C92.829 55.928 92.245 55.936 91.701 55.952C91.157 55.952 90.717 55.968 90.381 56ZM93.717 47.696V47.216H103.197V47.696H93.717ZM123.257 39.008V39.488C122.713 39.504 122.297 39.584 122.009 39.728C121.737 39.872 121.553 40.104 121.457 40.424C121.361 40.744 121.313 41.2 121.313 41.792V49.016C121.313 50.136 121.241 51.112 121.097 51.944C120.953 52.776 120.697 53.496 120.329 54.104C119.929 54.776 119.345 55.32 118.577 55.736C117.809 56.136 116.929 56.336 115.937 56.336C115.169 56.336 114.433 56.24 113.729 56.048C113.041 55.872 112.433 55.536 111.905 55.04C111.441 54.592 111.073 54.12 110.801 53.624C110.545 53.128 110.369 52.52 110.273 51.8C110.177 51.08 110.129 50.176 110.129 49.088V41.552C110.129 40.96 110.081 40.528 109.985 40.256C109.889 39.968 109.697 39.776 109.409 39.68C109.137 39.568 108.729 39.504 108.185 39.488V39.008C108.521 39.024 108.961 39.04 109.505 39.056C110.049 39.072 110.633 39.08 111.257 39.08C111.817 39.08 112.369 39.072 112.913 39.056C113.473 39.04 113.937 39.024 114.305 39.008V39.488C113.761 39.504 113.345 39.568 113.057 39.68C112.785 39.776 112.601 39.968 112.505 40.256C112.409 40.528 112.361 40.96 112.361 41.552V49.496C112.361 50.312 112.401 51.088 112.481 51.824C112.561 52.544 112.721 53.184 112.961 53.744C113.217 54.288 113.601 54.72 114.113 55.04C114.625 55.344 115.305 55.496 116.153 55.496C117.369 55.496 118.305 55.232 118.961 54.704C119.633 54.16 120.097 53.416 120.353 52.472C120.625 51.528 120.761 50.464 120.761 49.28V41.792C120.761 41.2 120.689 40.744 120.545 40.424C120.417 40.104 120.193 39.872 119.873 39.728C119.553 39.584 119.121 39.504 118.577 39.488V39.008C118.865 39.024 119.241 39.04 119.705 39.056C120.185 39.072 120.625 39.08 121.025 39.08C121.441 39.08 121.849 39.072 122.249 39.056C122.665 39.04 123.001 39.024 123.257 39.008ZM124.904 39.008C125.24 39.024 125.68 39.04 126.224 39.056C126.768 39.072 127.304 39.08 127.832 39.08C128.584 39.08 129.304 39.072 129.992 39.056C130.68 39.04 131.168 39.032 131.456 39.032C132.752 39.032 133.824 39.216 134.672 39.584C135.536 39.952 136.176 40.456 136.592 41.096C137.024 41.72 137.24 42.424 137.24 43.208C137.24 43.688 137.144 44.2 136.952 44.744C136.76 45.288 136.424 45.8 135.944 46.28C135.48 46.76 134.84 47.16 134.024 47.48C133.208 47.784 132.176 47.936 130.928 47.936H128.624V47.456H130.688C131.824 47.456 132.688 47.28 133.28 46.928C133.888 46.56 134.296 46.08 134.504 45.488C134.728 44.88 134.84 44.208 134.84 43.472C134.84 42.208 134.536 41.232 133.928 40.544C133.336 39.84 132.312 39.488 130.856 39.488C130.12 39.488 129.64 39.624 129.416 39.896C129.192 40.168 129.08 40.72 129.08 41.552V53.456C129.08 54.032 129.128 54.464 129.224 54.752C129.32 55.04 129.504 55.232 129.776 55.328C130.064 55.424 130.48 55.488 131.024 55.52V56C130.656 55.968 130.192 55.952 129.632 55.952C129.088 55.936 128.536 55.928 127.976 55.928C127.352 55.928 126.768 55.936 126.224 55.952C125.68 55.952 125.24 55.968 124.904 56V55.52C125.448 55.488 125.856 55.424 126.128 55.328C126.416 55.232 126.608 55.04 126.704 54.752C126.8 54.464 126.848 54.032 126.848 53.456V41.552C126.848 40.96 126.8 40.528 126.704 40.256C126.608 39.968 126.416 39.776 126.128 39.68C125.856 39.568 125.448 39.504 124.904 39.488V39.008ZM128.72 47.528C129.584 47.56 130.264 47.6 130.76 47.648C131.256 47.68 131.656 47.712 131.96 47.744C132.28 47.776 132.584 47.816 132.872 47.864C133.944 48.04 134.712 48.368 135.176 48.848C135.656 49.312 136.008 50.04 136.232 51.032L136.832 53.48C136.992 54.184 137.152 54.696 137.312 55.016C137.488 55.32 137.752 55.464 138.104 55.448C138.376 55.432 138.6 55.344 138.776 55.184C138.968 55.024 139.168 54.808 139.376 54.536L139.736 54.8C139.4 55.296 139.048 55.68 138.68 55.952C138.328 56.208 137.824 56.336 137.168 56.336C136.576 56.336 136.056 56.16 135.608 55.808C135.16 55.456 134.824 54.768 134.6 53.744L134.072 51.344C133.928 50.656 133.76 50.064 133.568 49.568C133.392 49.056 133.136 48.656 132.8 48.368C132.48 48.08 132 47.936 131.36 47.936H128.768L128.72 47.528ZM148.363 38.672C149.419 38.672 150.283 38.832 150.955 39.152C151.643 39.456 152.251 39.816 152.779 40.232C153.099 40.472 153.339 40.504 153.499 40.328C153.675 40.136 153.795 39.696 153.859 39.008H154.411C154.379 39.6 154.355 40.32 154.339 41.168C154.323 42.016 154.315 43.136 154.315 44.528H153.763C153.651 43.84 153.547 43.296 153.451 42.896C153.355 42.48 153.235 42.128 153.091 41.84C152.963 41.552 152.787 41.264 152.563 40.976C152.067 40.32 151.443 39.848 150.691 39.56C149.939 39.256 149.147 39.104 148.315 39.104C147.531 39.104 146.819 39.304 146.179 39.704C145.555 40.088 145.011 40.648 144.547 41.384C144.099 42.12 143.747 43.008 143.491 44.048C143.251 45.088 143.131 46.256 143.131 47.552C143.131 48.896 143.267 50.088 143.539 51.128C143.811 52.152 144.187 53.016 144.667 53.72C145.163 54.424 145.739 54.96 146.395 55.328C147.067 55.68 147.787 55.856 148.555 55.856C149.275 55.856 150.027 55.712 150.811 55.424C151.595 55.136 152.211 54.672 152.659 54.032C153.011 53.568 153.251 53.064 153.379 52.52C153.523 51.976 153.651 51.216 153.763 50.24H154.315C154.315 51.696 154.323 52.872 154.339 53.768C154.355 54.648 154.379 55.392 154.411 56H153.859C153.795 55.312 153.683 54.88 153.523 54.704C153.379 54.528 153.131 54.552 152.779 54.776C152.187 55.192 151.555 55.56 150.883 55.88C150.227 56.184 149.379 56.336 148.339 56.336C146.819 56.336 145.483 55.992 144.331 55.304C143.195 54.616 142.307 53.624 141.667 52.328C141.043 51.032 140.731 49.472 140.731 47.648C140.731 45.856 141.059 44.288 141.715 42.944C142.371 41.6 143.267 40.552 144.403 39.8C145.555 39.048 146.875 38.672 148.363 38.672ZM167.022 56V55.52C167.566 55.488 167.974 55.424 168.246 55.328C168.534 55.232 168.726 55.04 168.822 54.752C168.918 54.464 168.966 54.032 168.966 53.456V41.552C168.966 40.96 168.918 40.528 168.822 40.256C168.726 39.968 168.534 39.776 168.246 39.68C167.974 39.568 167.566 39.504 167.022 39.488V39.008C167.39 39.024 167.854 39.04 168.414 39.056C168.974 39.072 169.526 39.08 170.07 39.08C170.694 39.08 171.278 39.072 171.822 39.056C172.366 39.04 172.806 39.024 173.142 39.008V39.488C172.598 39.504 172.182 39.568 171.894 39.68C171.622 39.776 171.438 39.968 171.342 40.256C171.246 40.528 171.198 40.96 171.198 41.552V53.456C171.198 54.032 171.246 54.464 171.342 54.752C171.438 55.04 171.622 55.232 171.894 55.328C172.182 55.424 172.598 55.488 173.142 55.52V56C172.806 55.968 172.366 55.952 171.822 55.952C171.278 55.936 170.694 55.928 170.07 55.928C169.526 55.928 168.974 55.936 168.414 55.952C167.854 55.952 167.39 55.968 167.022 56ZM156.99 56V55.52C157.534 55.488 157.942 55.424 158.214 55.328C158.502 55.232 158.694 55.04 158.79 54.752C158.886 54.464 158.934 54.032 158.934 53.456V41.552C158.934 40.96 158.886 40.528 158.79 40.256C158.694 39.968 158.502 39.776 158.214 39.68C157.942 39.568 157.534 39.504 156.99 39.488V39.008C157.326 39.024 157.766 39.04 158.31 39.056C158.854 39.072 159.438 39.08 160.062 39.08C160.622 39.08 161.174 39.072 161.718 39.056C162.278 39.04 162.742 39.024 163.11 39.008V39.488C162.566 39.504 162.15 39.568 161.862 39.68C161.59 39.776 161.406 39.968 161.31 40.256C161.214 40.528 161.166 40.96 161.166 41.552V53.456C161.166 54.032 161.214 54.464 161.31 54.752C161.406 55.04 161.59 55.232 161.862 55.328C162.15 55.424 162.566 55.488 163.11 55.52V56C162.742 55.968 162.278 55.952 161.718 55.952C161.174 55.936 160.622 55.928 160.062 55.928C159.438 55.928 158.854 55.936 158.31 55.952C157.766 55.952 157.326 55.968 156.99 56ZM160.326 47.696V47.216H169.806V47.696H160.326Z" fill="black"/>
<path d="M87.4209 7.008C87.3569 7.616 87.3089 8.208 87.2769 8.784C87.2609 9.344 87.2529 9.776 87.2529 10.08C87.2529 10.464 87.2609 10.824 87.2769 11.16C87.2929 11.496 87.3089 11.792 87.3249 12.048H86.7729C86.6609 10.928 86.5089 10.048 86.3169 9.408C86.1249 8.752 85.7889 8.28 85.3089 7.992C84.8289 7.704 84.0849 7.56 83.0769 7.56H81.7809V21.216C81.7809 21.856 81.8369 22.336 81.9489 22.656C82.0769 22.976 82.3169 23.192 82.6689 23.304C83.0209 23.416 83.5329 23.488 84.2049 23.52V24C83.7889 23.968 83.2609 23.952 82.6209 23.952C81.9809 23.936 81.3329 23.928 80.6769 23.928C79.9569 23.928 79.2769 23.936 78.6369 23.952C78.0129 23.952 77.5089 23.968 77.1249 24V23.52C77.7969 23.488 78.3089 23.416 78.6609 23.304C79.0129 23.192 79.2449 22.976 79.3569 22.656C79.4849 22.336 79.5489 21.856 79.5489 21.216V7.56H78.2529C77.2609 7.56 76.5169 7.704 76.0209 7.992C75.5409 8.28 75.2049 8.752 75.0129 9.408C74.8209 10.048 74.6689 10.928 74.5569 12.048H74.0049C74.0369 11.792 74.0529 11.496 74.0529 11.16C74.0689 10.824 74.0769 10.464 74.0769 10.08C74.0769 9.776 74.0609 9.344 74.0289 8.784C74.0129 8.208 73.9729 7.616 73.9089 7.008C74.5809 7.024 75.3089 7.04 76.0929 7.056C76.8929 7.072 77.6929 7.08 78.4929 7.08C79.2929 7.08 80.0209 7.08 80.6769 7.08C81.3329 7.08 82.0529 7.08 82.8369 7.08C83.6369 7.08 84.4369 7.072 85.2369 7.056C86.0369 7.04 86.7649 7.024 87.4209 7.008ZM99.1591 24V23.52C99.7031 23.488 100.111 23.424 100.383 23.328C100.671 23.232 100.863 23.04 100.959 22.752C101.055 22.464 101.103 22.032 101.103 21.456V9.552C101.103 8.96 101.055 8.528 100.959 8.256C100.863 7.968 100.671 7.776 100.383 7.68C100.111 7.568 99.7031 7.504 99.1591 7.488V7.008C99.5271 7.024 99.9911 7.04 100.551 7.056C101.111 7.072 101.663 7.08 102.207 7.08C102.831 7.08 103.415 7.072 103.959 7.056C104.503 7.04 104.943 7.024 105.279 7.008V7.488C104.735 7.504 104.319 7.568 104.031 7.68C103.759 7.776 103.575 7.968 103.479 8.256C103.383 8.528 103.335 8.96 103.335 9.552V21.456C103.335 22.032 103.383 22.464 103.479 22.752C103.575 23.04 103.759 23.232 104.031 23.328C104.319 23.424 104.735 23.488 105.279 23.52V24C104.943 23.968 104.503 23.952 103.959 23.952C103.415 23.936 102.831 23.928 102.207 23.928C101.663 23.928 101.111 23.936 100.551 23.952C99.9911 23.952 99.5271 23.968 99.1591 24ZM89.1271 24V23.52C89.6711 23.488 90.0791 23.424 90.3511 23.328C90.6391 23.232 90.8311 23.04 90.9271 22.752C91.0231 22.464 91.0711 22.032 91.0711 21.456V9.552C91.0711 8.96 91.0231 8.528 90.9271 8.256C90.8311 7.968 90.6391 7.776 90.3511 7.68C90.0791 7.568 89.6711 7.504 89.1271 7.488V7.008C89.4631 7.024 89.9031 7.04 90.4471 7.056C90.9911 7.072 91.5751 7.08 92.1991 7.08C92.7591 7.08 93.3111 7.072 93.8551 7.056C94.4151 7.04 94.8791 7.024 95.2471 7.008V7.488C94.7031 7.504 94.2871 7.568 93.9991 7.68C93.7271 7.776 93.5431 7.968 93.4471 8.256C93.3511 8.528 93.3031 8.96 93.3031 9.552V21.456C93.3031 22.032 93.3511 22.464 93.4471 22.752C93.5431 23.04 93.7271 23.232 93.9991 23.328C94.2871 23.424 94.7031 23.488 95.2471 23.52V24C94.8791 23.968 94.4151 23.952 93.8551 23.952C93.3111 23.936 92.7591 23.928 92.1991 23.928C91.5751 23.928 90.9911 23.936 90.4471 23.952C89.9031 23.952 89.4631 23.968 89.1271 24ZM92.4631 15.696V15.216H101.943V15.696H92.4631ZM119.267 7.008C119.203 7.568 119.155 8.112 119.123 8.64C119.107 9.168 119.099 9.568 119.099 9.84C119.099 10.128 119.107 10.408 119.123 10.68C119.139 10.936 119.155 11.152 119.171 11.328H118.619C118.523 10.384 118.387 9.64 118.211 9.096C118.035 8.536 117.731 8.144 117.299 7.92C116.883 7.68 116.251 7.56 115.403 7.56H113.411C112.867 7.56 112.451 7.608 112.163 7.704C111.891 7.784 111.707 7.968 111.611 8.256C111.515 8.528 111.467 8.96 111.467 9.552V21.456C111.467 22.032 111.515 22.464 111.611 22.752C111.707 23.04 111.891 23.232 112.163 23.328C112.451 23.408 112.867 23.448 113.411 23.448H115.163C116.171 23.448 116.931 23.312 117.443 23.04C117.971 22.768 118.347 22.328 118.571 21.72C118.811 21.096 118.987 20.256 119.099 19.2H119.651C119.603 19.632 119.579 20.208 119.579 20.928C119.579 21.232 119.587 21.672 119.603 22.248C119.635 22.808 119.683 23.392 119.747 24C118.931 23.968 118.011 23.952 116.987 23.952C115.963 23.936 115.051 23.928 114.251 23.928C113.899 23.928 113.443 23.928 112.883 23.928C112.339 23.928 111.747 23.936 111.107 23.952C110.467 23.952 109.819 23.96 109.163 23.976C108.507 23.976 107.883 23.984 107.291 24V23.52C107.835 23.488 108.243 23.424 108.515 23.328C108.803 23.232 108.995 23.04 109.091 22.752C109.187 22.464 109.235 22.032 109.235 21.456V9.552C109.235 8.96 109.187 8.528 109.091 8.256C108.995 7.968 108.803 7.776 108.515 7.68C108.243 7.568 107.835 7.504 107.291 7.488V7.008C107.883 7.024 108.507 7.04 109.163 7.056C109.819 7.056 110.467 7.064 111.107 7.08C111.747 7.08 112.339 7.08 112.883 7.08C113.443 7.08 113.899 7.08 114.251 7.08C114.987 7.08 115.819 7.08 116.747 7.08C117.691 7.064 118.531 7.04 119.267 7.008ZM115.139 15.216C115.139 15.216 115.139 15.296 115.139 15.456C115.139 15.616 115.139 15.696 115.139 15.696H110.747C110.747 15.696 110.747 15.616 110.747 15.456C110.747 15.296 110.747 15.216 110.747 15.216H115.139ZM115.835 12.048C115.771 12.96 115.739 13.656 115.739 14.136C115.755 14.616 115.763 15.056 115.763 15.456C115.763 15.856 115.771 16.296 115.787 16.776C115.803 17.256 115.843 17.952 115.907 18.864H115.355C115.291 18.352 115.211 17.856 115.115 17.376C115.035 16.88 114.843 16.48 114.539 16.176C114.251 15.856 113.755 15.696 113.051 15.696V15.216C113.579 15.216 113.979 15.112 114.251 14.904C114.539 14.68 114.747 14.4 114.875 14.064C115.003 13.728 115.091 13.384 115.139 13.032C115.187 12.664 115.235 12.336 115.283 12.048H115.835ZM147.856 7.008V7.488C147.552 7.552 147.216 7.736 146.848 8.04C146.48 8.328 146.184 8.84 145.96 9.576L141.424 24.12C141.392 24.12 141.36 24.12 141.328 24.12C141.296 24.12 141.264 24.12 141.232 24.12C141.2 24.12 141.168 24.12 141.136 24.12C141.104 24.12 141.072 24.12 141.04 24.12L135.952 9.024C135.744 8.4 135.512 7.992 135.256 7.8C135 7.608 134.76 7.504 134.536 7.488V7.008C134.824 7.024 135.184 7.04 135.616 7.056C136.048 7.072 136.464 7.08 136.864 7.08C137.488 7.08 138.072 7.072 138.616 7.056C139.16 7.04 139.6 7.024 139.936 7.008V7.488C139.456 7.504 139.072 7.552 138.784 7.632C138.512 7.712 138.352 7.888 138.304 8.16C138.272 8.432 138.352 8.88 138.544 9.504L142.12 20.568L141.784 20.856L144.952 10.896C145.24 10.016 145.368 9.336 145.336 8.856C145.32 8.36 145.144 8.016 144.808 7.824C144.472 7.616 143.968 7.504 143.296 7.488V7.008C143.76 7.024 144.232 7.04 144.712 7.056C145.192 7.072 145.64 7.08 146.056 7.08C146.472 7.08 146.816 7.072 147.088 7.056C147.36 7.04 147.616 7.024 147.856 7.008ZM131.08 7.008V7.488C130.664 7.52 130.36 7.6 130.168 7.728C129.992 7.856 129.904 8.064 129.904 8.352C129.92 8.624 130.008 9.008 130.168 9.504L133.888 20.856L133.288 21.456L136.648 10.728L137.008 11.304L133.048 24.12C133.016 24.12 132.984 24.12 132.952 24.12C132.92 24.12 132.888 24.12 132.856 24.12C132.824 24.12 132.792 24.12 132.76 24.12C132.728 24.12 132.696 24.12 132.664 24.12L127.576 9.024C127.368 8.4 127.104 7.992 126.784 7.8C126.464 7.608 126.176 7.504 125.92 7.488V7.008C126.24 7.024 126.632 7.04 127.096 7.056C127.576 7.072 128.04 7.08 128.488 7.08C129.016 7.08 129.504 7.072 129.952 7.056C130.416 7.04 130.792 7.024 131.08 7.008ZM154.207 6.888L160.063 21.984C160.303 22.592 160.575 23 160.879 23.208C161.183 23.4 161.463 23.504 161.719 23.52V24C161.399 23.968 161.007 23.952 160.543 23.952C160.079 23.936 159.615 23.928 159.151 23.928C158.527 23.928 157.943 23.936 157.399 23.952C156.855 23.952 156.415 23.968 156.079 24V23.52C156.895 23.488 157.415 23.352 157.639 23.112C157.863 22.856 157.815 22.32 157.495 21.504L153.031 9.576L153.415 9.264L149.239 20.112C148.983 20.752 148.831 21.296 148.783 21.744C148.735 22.176 148.775 22.52 148.903 22.776C149.047 23.032 149.279 23.216 149.599 23.328C149.935 23.44 150.351 23.504 150.847 23.52V24C150.399 23.968 149.927 23.952 149.431 23.952C148.951 23.936 148.503 23.928 148.087 23.928C147.687 23.928 147.343 23.936 147.055 23.952C146.783 23.952 146.527 23.968 146.287 24V23.52C146.607 23.44 146.935 23.256 147.271 22.968C147.607 22.664 147.911 22.152 148.183 21.432L153.823 6.888C153.887 6.888 153.951 6.888 154.015 6.888C154.079 6.888 154.143 6.888 154.207 6.888ZM157.135 17.088V17.568H149.983L150.223 17.088H157.135ZM174.489 7.008V7.488C174.185 7.552 173.881 7.752 173.577 8.088C173.273 8.408 172.937 8.92 172.569 9.624L167.721 19.224H167.313L161.697 8.856C161.377 8.264 161.105 7.896 160.881 7.752C160.673 7.592 160.481 7.512 160.305 7.512V7.008C160.625 7.024 160.953 7.04 161.289 7.056C161.641 7.072 162.017 7.08 162.417 7.08C162.945 7.08 163.505 7.08 164.097 7.08C164.705 7.064 165.265 7.04 165.777 7.008V7.512C165.377 7.512 165.025 7.56 164.721 7.656C164.417 7.752 164.217 7.928 164.121 8.184C164.025 8.44 164.097 8.8 164.337 9.264L168.393 17.04L168.201 17.184L171.393 10.824C171.841 9.944 172.057 9.264 172.041 8.784C172.041 8.304 171.857 7.976 171.489 7.8C171.121 7.608 170.601 7.504 169.929 7.488V7.008C170.393 7.024 170.865 7.04 171.345 7.056C171.825 7.072 172.273 7.08 172.689 7.08C173.105 7.08 173.449 7.072 173.721 7.056C173.993 7.04 174.249 7.024 174.489 7.008ZM168.801 16.704V21.456C168.801 22.032 168.849 22.464 168.945 22.752C169.041 23.04 169.225 23.232 169.497 23.328C169.785 23.424 170.201 23.488 170.745 23.52V24C170.377 23.968 169.913 23.952 169.353 23.952C168.809 23.936 168.257 23.928 167.697 23.928C167.073 23.928 166.489 23.936 165.945 23.952C165.401 23.952 164.961 23.968 164.625 24V23.52C165.169 23.488 165.577 23.424 165.849 23.328C166.137 23.232 166.329 23.04 166.425 22.752C166.521 22.464 166.569 22.032 166.569 21.456V16.536L167.865 18.024L168.801 16.704ZM81.7536 38.672C82.8096 38.672 83.6736 38.832 84.3456 39.152C85.0336 39.456 85.6416 39.816 86.1696 40.232C86.4896 40.472 86.7296 40.504 86.8896 40.328C87.0656 40.136 87.1856 39.696 87.2496 39.008H87.8016C87.7696 39.6 87.7456 40.32 87.7296 41.168C87.7136 42.016 87.7056 43.136 87.7056 44.528H87.1536C87.0416 43.84 86.9376 43.296 86.8416 42.896C86.7456 42.48 86.6256 42.128 86.4816 41.84C86.3536 41.552 86.1776 41.264 85.9536 40.976C85.4576 40.32 84.8336 39.848 84.0816 39.56C83.3296 39.256 82.5376 39.104 81.7056 39.104C80.9216 39.104 80.2096 39.304 79.5696 39.704C78.9456 40.088 78.4016 40.648 77.9376 41.384C77.4896 42.12 77.1376 43.008 76.8816 44.048C76.6416 45.088 76.5216 46.256 76.5216 47.552C76.5216 48.896 76.6576 50.088 76.9296 51.128C77.2016 52.152 77.5776 53.016 78.0576 53.72C78.5536 54.424 79.1296 54.96 79.7856 55.328C80.4576 55.68 81.1776 55.856 81.9456 55.856C82.6656 55.856 83.4176 55.712 84.2016 55.424C84.9856 55.136 85.6016 54.672 86.0496 54.032C86.4016 53.568 86.6416 53.064 86.7696 52.52C86.9136 51.976 87.0416 51.216 87.1536 50.24H87.7056C87.7056 51.696 87.7136 52.872 87.7296 53.768C87.7456 54.648 87.7696 55.392 87.8016 56H87.2496C87.1856 55.312 87.0736 54.88 86.9136 54.704C86.7696 54.528 86.5216 54.552 86.1696 54.776C85.5776 55.192 84.9456 55.56 84.2736 55.88C83.6176 56.184 82.7696 56.336 81.7296 56.336C80.2096 56.336 78.8736 55.992 77.7216 55.304C76.5856 54.616 75.6976 53.624 75.0576 52.328C74.4336 51.032 74.1216 49.472 74.1216 47.648C74.1216 45.856 74.4496 44.288 75.1056 42.944C75.7616 41.6 76.6576 40.552 77.7936 39.8C78.9456 39.048 80.2656 38.672 81.7536 38.672ZM100.413 56V55.52C100.957 55.488 101.365 55.424 101.637 55.328C101.925 55.232 102.117 55.04 102.213 54.752C102.309 54.464 102.357 54.032 102.357 53.456V41.552C102.357 40.96 102.309 40.528 102.213 40.256C102.117 39.968 101.925 39.776 101.637 39.68C101.365 39.568 100.957 39.504 100.413 39.488V39.008C100.781 39.024 101.245 39.04 101.805 39.056C102.365 39.072 102.917 39.08 103.461 39.08C104.085 39.08 104.669 39.072 105.213 39.056C105.757 39.04 106.197 39.024 106.533 39.008V39.488C105.989 39.504 105.573 39.568 105.285 39.68C105.013 39.776 104.829 39.968 104.733 40.256C104.637 40.528 104.589 40.96 104.589 41.552V53.456C104.589 54.032 104.637 54.464 104.733 54.752C104.829 55.04 105.013 55.232 105.285 55.328C105.573 55.424 105.989 55.488 106.533 55.52V56C106.197 55.968 105.757 55.952 105.213 55.952C104.669 55.936 104.085 55.928 103.461 55.928C102.917 55.928 102.365 55.936 101.805 55.952C101.245 55.952 100.781 55.968 100.413 56ZM90.381 56V55.52C90.925 55.488 91.333 55.424 91.605 55.328C91.893 55.232 92.085 55.04 92.181 54.752C92.277 54.464 92.325 54.032 92.325 53.456V41.552C92.325 40.96 92.277 40.528 92.181 40.256C92.085 39.968 91.893 39.776 91.605 39.68C91.333 39.568 90.925 39.504 90.381 39.488V39.008C90.717 39.024 91.157 39.04 91.701 39.056C92.245 39.072 92.829 39.08 93.453 39.08C94.013 39.08 94.565 39.072 95.109 39.056C95.669 39.04 96.133 39.024 96.501 39.008V39.488C95.957 39.504 95.541 39.568 95.253 39.68C94.981 39.776 94.797 39.968 94.701 40.256C94.605 40.528 94.557 40.96 94.557 41.552V53.456C94.557 54.032 94.605 54.464 94.701 54.752C94.797 55.04 94.981 55.232 95.253 55.328C95.541 55.424 95.957 55.488 96.501 55.52V56C96.133 55.968 95.669 55.952 95.109 55.952C94.565 55.936 94.013 55.928 93.453 55.928C92.829 55.928 92.245 55.936 91.701 55.952C91.157 55.952 90.717 55.968 90.381 56ZM93.717 47.696V47.216H103.197V47.696H93.717ZM123.257 39.008V39.488C122.713 39.504 122.297 39.584 122.009 39.728C121.737 39.872 121.553 40.104 121.457 40.424C121.361 40.744 121.313 41.2 121.313 41.792V49.016C121.313 50.136 121.241 51.112 121.097 51.944C120.953 52.776 120.697 53.496 120.329 54.104C119.929 54.776 119.345 55.32 118.577 55.736C117.809 56.136 116.929 56.336 115.937 56.336C115.169 56.336 114.433 56.24 113.729 56.048C113.041 55.872 112.433 55.536 111.905 55.04C111.441 54.592 111.073 54.12 110.801 53.624C110.545 53.128 110.369 52.52 110.273 51.8C110.177 51.08 110.129 50.176 110.129 49.088V41.552C110.129 40.96 110.081 40.528 109.985 40.256C109.889 39.968 109.697 39.776 109.409 39.68C109.137 39.568 108.729 39.504 108.185 39.488V39.008C108.521 39.024 108.961 39.04 109.505 39.056C110.049 39.072 110.633 39.08 111.257 39.08C111.817 39.08 112.369 39.072 112.913 39.056C113.473 39.04 113.937 39.024 114.305 39.008V39.488C113.761 39.504 113.345 39.568 113.057 39.68C112.785 39.776 112.601 39.968 112.505 40.256C112.409 40.528 112.361 40.96 112.361 41.552V49.496C112.361 50.312 112.401 51.088 112.481 51.824C112.561 52.544 112.721 53.184 112.961 53.744C113.217 54.288 113.601 54.72 114.113 55.04C114.625 55.344 115.305 55.496 116.153 55.496C117.369 55.496 118.305 55.232 118.961 54.704C119.633 54.16 120.097 53.416 120.353 52.472C120.625 51.528 120.761 50.464 120.761 49.28V41.792C120.761 41.2 120.689 40.744 120.545 40.424C120.417 40.104 120.193 39.872 119.873 39.728C119.553 39.584 119.121 39.504 118.577 39.488V39.008C118.865 39.024 119.241 39.04 119.705 39.056C120.185 39.072 120.625 39.08 121.025 39.08C121.441 39.08 121.849 39.072 122.249 39.056C122.665 39.04 123.001 39.024 123.257 39.008ZM124.904 39.008C125.24 39.024 125.68 39.04 126.224 39.056C126.768 39.072 127.304 39.08 127.832 39.08C128.584 39.08 129.304 39.072 129.992 39.056C130.68 39.04 131.168 39.032 131.456 39.032C132.752 39.032 133.824 39.216 134.672 39.584C135.536 39.952 136.176 40.456 136.592 41.096C137.024 41.72 137.24 42.424 137.24 43.208C137.24 43.688 137.144 44.2 136.952 44.744C136.76 45.288 136.424 45.8 135.944 46.28C135.48 46.76 134.84 47.16 134.024 47.48C133.208 47.784 132.176 47.936 130.928 47.936H128.624V47.456H130.688C131.824 47.456 132.688 47.28 133.28 46.928C133.888 46.56 134.296 46.08 134.504 45.488C134.728 44.88 134.84 44.208 134.84 43.472C134.84 42.208 134.536 41.232 133.928 40.544C133.336 39.84 132.312 39.488 130.856 39.488C130.12 39.488 129.64 39.624 129.416 39.896C129.192 40.168 129.08 40.72 129.08 41.552V53.456C129.08 54.032 129.128 54.464 129.224 54.752C129.32 55.04 129.504 55.232 129.776 55.328C130.064 55.424 130.48 55.488 131.024 55.52V56C130.656 55.968 130.192 55.952 129.632 55.952C129.088 55.936 128.536 55.928 127.976 55.928C127.352 55.928 126.768 55.936 126.224 55.952C125.68 55.952 125.24 55.968 124.904 56V55.52C125.448 55.488 125.856 55.424 126.128 55.328C126.416 55.232 126.608 55.04 126.704 54.752C126.8 54.464 126.848 54.032 126.848 53.456V41.552C126.848 40.96 126.8 40.528 126.704 40.256C126.608 39.968 126.416 39.776 126.128 39.68C125.856 39.568 125.448 39.504 124.904 39.488V39.008ZM128.72 47.528C129.584 47.56 130.264 47.6 130.76 47.648C131.256 47.68 131.656 47.712 131.96 47.744C132.28 47.776 132.584 47.816 132.872 47.864C133.944 48.04 134.712 48.368 135.176 48.848C135.656 49.312 136.008 50.04 136.232 51.032L136.832 53.48C136.992 54.184 137.152 54.696 137.312 55.016C137.488 55.32 137.752 55.464 138.104 55.448C138.376 55.432 138.6 55.344 138.776 55.184C138.968 55.024 139.168 54.808 139.376 54.536L139.736 54.8C139.4 55.296 139.048 55.68 138.68 55.952C138.328 56.208 137.824 56.336 137.168 56.336C136.576 56.336 136.056 56.16 135.608 55.808C135.16 55.456 134.824 54.768 134.6 53.744L134.072 51.344C133.928 50.656 133.76 50.064 133.568 49.568C133.392 49.056 133.136 48.656 132.8 48.368C132.48 48.08 132 47.936 131.36 47.936H128.768L128.72 47.528ZM148.363 38.672C149.419 38.672 150.283 38.832 150.955 39.152C151.643 39.456 152.251 39.816 152.779 40.232C153.099 40.472 153.339 40.504 153.499 40.328C153.675 40.136 153.795 39.696 153.859 39.008H154.411C154.379 39.6 154.355 40.32 154.339 41.168C154.323 42.016 154.315 43.136 154.315 44.528H153.763C153.651 43.84 153.547 43.296 153.451 42.896C153.355 42.48 153.235 42.128 153.091 41.84C152.963 41.552 152.787 41.264 152.563 40.976C152.067 40.32 151.443 39.848 150.691 39.56C149.939 39.256 149.147 39.104 148.315 39.104C147.531 39.104 146.819 39.304 146.179 39.704C145.555 40.088 145.011 40.648 144.547 41.384C144.099 42.12 143.747 43.008 143.491 44.048C143.251 45.088 143.131 46.256 143.131 47.552C143.131 48.896 143.267 50.088 143.539 51.128C143.811 52.152 144.187 53.016 144.667 53.72C145.163 54.424 145.739 54.96 146.395 55.328C147.067 55.68 147.787 55.856 148.555 55.856C149.275 55.856 150.027 55.712 150.811 55.424C151.595 55.136 152.211 54.672 152.659 54.032C153.011 53.568 153.251 53.064 153.379 52.52C153.523 51.976 153.651 51.216 153.763 50.24H154.315C154.315 51.696 154.323 52.872 154.339 53.768C154.355 54.648 154.379 55.392 154.411 56H153.859C153.795 55.312 153.683 54.88 153.523 54.704C153.379 54.528 153.131 54.552 152.779 54.776C152.187 55.192 151.555 55.56 150.883 55.88C150.227 56.184 149.379 56.336 148.339 56.336C146.819 56.336 145.483 55.992 144.331 55.304C143.195 54.616 142.307 53.624 141.667 52.328C141.043 51.032 140.731 49.472 140.731 47.648C140.731 45.856 141.059 44.288 141.715 42.944C142.371 41.6 143.267 40.552 144.403 39.8C145.555 39.048 146.875 38.672 148.363 38.672ZM167.022 56V55.52C167.566 55.488 167.974 55.424 168.246 55.328C168.534 55.232 168.726 55.04 168.822 54.752C168.918 54.464 168.966 54.032 168.966 53.456V41.552C168.966 40.96 168.918 40.528 168.822 40.256C168.726 39.968 168.534 39.776 168.246 39.68C167.974 39.568 167.566 39.504 167.022 39.488V39.008C167.39 39.024 167.854 39.04 168.414 39.056C168.974 39.072 169.526 39.08 170.07 39.08C170.694 39.08 171.278 39.072 171.822 39.056C172.366 39.04 172.806 39.024 173.142 39.008V39.488C172.598 39.504 172.182 39.568 171.894 39.68C171.622 39.776 171.438 39.968 171.342 40.256C171.246 40.528 171.198 40.96 171.198 41.552V53.456C171.198 54.032 171.246 54.464 171.342 54.752C171.438 55.04 171.622 55.232 171.894 55.328C172.182 55.424 172.598 55.488 173.142 55.52V56C172.806 55.968 172.366 55.952 171.822 55.952C171.278 55.936 170.694 55.928 170.07 55.928C169.526 55.928 168.974 55.936 168.414 55.952C167.854 55.952 167.39 55.968 167.022 56ZM156.99 56V55.52C157.534 55.488 157.942 55.424 158.214 55.328C158.502 55.232 158.694 55.04 158.79 54.752C158.886 54.464 158.934 54.032 158.934 53.456V41.552C158.934 40.96 158.886 40.528 158.79 40.256C158.694 39.968 158.502 39.776 158.214 39.68C157.942 39.568 157.534 39.504 156.99 39.488V39.008C157.326 39.024 157.766 39.04 158.31 39.056C158.854 39.072 159.438 39.08 160.062 39.08C160.622 39.08 161.174 39.072 161.718 39.056C162.278 39.04 162.742 39.024 163.11 39.008V39.488C162.566 39.504 162.15 39.568 161.862 39.68C161.59 39.776 161.406 39.968 161.31 40.256C161.214 40.528 161.166 40.96 161.166 41.552V53.456C161.166 54.032 161.214 54.464 161.31 54.752C161.406 55.04 161.59 55.232 161.862 55.328C162.15 55.424 162.566 55.488 163.11 55.52V56C162.742 55.968 162.278 55.952 161.718 55.952C161.174 55.936 160.622 55.928 160.062 55.928C159.438 55.928 158.854 55.936 158.31 55.952C157.766 55.952 157.326 55.968 156.99 56ZM160.326 47.696V47.216H169.806V47.696H160.326Z" fill="black"/>
<path d="M41.9085 9.36432C29.1062 4.19242 14.5361 10.3777 9.3642 23.1799C4.1923 35.9822 10.3776 50.5523 23.1798 55.7242C35.9821 60.8961 50.5522 54.7108 55.7241 41.9086C60.896 29.1063 54.7107 14.5362 41.9085 9.36432ZM48.7261 35.5481L48.4644 36.1958C48.2428 36.7444 47.7297 37.121 47.1401 37.1677L45.4109 37.3062C45.1363 37.3283 44.8607 37.2772 44.6122 37.1583C44.3637 37.0394 44.1511 36.8568 43.9959 36.6292L42.7523 34.8069C42.6181 34.6104 42.4408 34.4471 42.234 34.3295C42.0272 34.2118 41.7963 34.1429 41.5588 34.1279L41.2779 34.1101C40.2493 34.0458 39.4427 34.9767 39.6513 35.9862L40.1389 38.3424C40.2444 38.8536 40.599 39.2785 41.0832 39.4741L41.8505 39.7841C42.6506 40.1073 43.0372 41.018 42.714 41.8181L42.2858 42.878C42.1593 43.1911 41.934 43.4556 41.6449 43.6302L38.9501 45.2574C38.7456 45.3814 38.5719 45.5504 38.4428 45.7516L37.1789 47.7231C36.9967 48.0072 36.7273 48.2245 36.4107 48.3434C35.1973 48.7967 34.043 49.3949 32.973 50.1249L31.0169 51.4602C30.6365 51.7198 30.1979 51.8815 29.74 51.931C29.2821 51.9804 28.8191 51.916 28.392 51.7436C27.4097 51.3468 26.7358 50.4287 26.6514 49.3726C26.5531 48.1416 26.7427 46.9046 27.2053 45.7596L28.334 42.9659C28.6572 42.1658 28.2706 41.2551 27.4705 40.9319L25.0516 39.9547C23.6972 39.4075 22.6164 38.3447 22.0451 37.0005C21.4747 35.656 21.4614 34.14 22.0082 32.7857L22.5391 31.4716C23.1882 29.8649 24.5566 28.6575 26.2315 28.2121L29.5905 27.3197C30.7423 27.0139 31.9621 27.0897 33.0671 27.5358L33.1503 27.5694C33.9429 27.8896 34.6508 28.3898 35.2158 29.0312L36.3138 30.2749C36.5882 30.5859 36.9742 30.7744 37.3878 30.8001L42.4052 31.1125C43.0765 31.1543 43.6991 30.7622 43.951 30.1388C44.2742 29.3387 43.8876 28.428 43.0875 28.1048L42.1444 27.7238C41.7603 27.5686 41.4536 27.2675 41.2915 26.8856L40.906 25.9775C40.8258 25.7886 40.7092 25.6174 40.5629 25.4736C40.4165 25.3297 40.2433 25.2162 40.053 25.1393L31.6362 21.7391C30.8362 21.4159 30.4495 20.5052 30.7728 19.7051L30.9389 19.2938C31.2074 18.6293 31.8939 18.2325 32.6041 18.3314L34.091 18.5396C34.4761 18.593 34.8673 18.502 35.1885 18.2828L36.401 17.456C36.832 17.1615 37.3821 17.1022 37.8663 17.2978L40.1292 18.2119C40.9292 18.5352 41.84 18.1485 42.1632 17.3485L42.9826 15.3202C49.9022 19.5116 53.607 27.4653 52.4827 35.3805L50.7601 34.6846C49.96 34.3614 49.0493 34.748 48.7261 35.5481Z" fill="#010101"/>
<path d="M41.9085 9.36432C29.1062 4.19242 14.5361 10.3777 9.3642 23.1799C4.1923 35.9822 10.3776 50.5523 23.1798 55.7242C35.9821 60.8961 50.5522 54.7108 55.7241 41.9086C60.896 29.1063 54.7107 14.5362 41.9085 9.36432ZM48.7261 35.5481L48.4644 36.1958C48.2428 36.7444 47.7297 37.121 47.1401 37.1677L45.4109 37.3062C45.1363 37.3283 44.8607 37.2772 44.6122 37.1583C44.3637 37.0394 44.1511 36.8568 43.9959 36.6292L42.7523 34.8069C42.6181 34.6104 42.4408 34.4471 42.234 34.3295C42.0272 34.2118 41.7963 34.1429 41.5588 34.1279L41.2779 34.1101C40.2493 34.0458 39.4427 34.9767 39.6513 35.9862L40.1389 38.3424C40.2444 38.8536 40.599 39.2785 41.0832 39.4741L41.8505 39.7841C42.6506 40.1073 43.0372 41.018 42.714 41.8181L42.2858 42.878C42.1593 43.1911 41.934 43.4556 41.6449 43.6302L38.9501 45.2574C38.7456 45.3814 38.5719 45.5504 38.4428 45.7516L37.1789 47.7231C36.9967 48.0072 36.7273 48.2245 36.4107 48.3434C35.1973 48.7967 34.043 49.3949 32.973 50.1249L31.0169 51.4602C30.6365 51.7198 30.1979 51.8815 29.74 51.931C29.2821 51.9804 28.8191 51.916 28.392 51.7436C27.4097 51.3468 26.7358 50.4287 26.6514 49.3726C26.5531 48.1416 26.7427 46.9046 27.2053 45.7596L28.334 42.9659C28.6572 42.1658 28.2706 41.2551 27.4705 40.9319L25.0516 39.9547C23.6972 39.4075 22.6164 38.3447 22.0451 37.0005C21.4747 35.656 21.4614 34.14 22.0082 32.7857L22.5391 31.4716C23.1882 29.8649 24.5566 28.6575 26.2315 28.2121L29.5905 27.3197C30.7423 27.0139 31.9621 27.0897 33.0671 27.5358L33.1503 27.5694C33.9429 27.8896 34.6508 28.3898 35.2158 29.0312L36.3138 30.2749C36.5882 30.5859 36.9742 30.7744 37.3878 30.8001L42.4052 31.1125C43.0765 31.1543 43.6991 30.7622 43.951 30.1388C44.2742 29.3387 43.8876 28.428 43.0875 28.1048L42.1444 27.7238C41.7603 27.5686 41.4536 27.2675 41.2915 26.8856L40.906 25.9775C40.8258 25.7886 40.7092 25.6174 40.5629 25.4736C40.4165 25.3297 40.2433 25.2162 40.053 25.1393L31.6362 21.7391C30.8362 21.4159 30.4495 20.5052 30.7728 19.7051L30.9389 19.2938C31.2074 18.6293 31.8939 18.2325 32.6041 18.3314L34.091 18.5396C34.4761 18.593 34.8673 18.502 35.1885 18.2828L36.401 17.456C36.832 17.1615 37.3821 17.1022 37.8663 17.2978L40.1292 18.2119C40.9292 18.5352 41.84 18.1485 42.1632 17.3485L42.9826 15.3202C49.9022 19.5116 53.607 27.4653 52.4827 35.3805L50.7601 34.6846C49.96 34.3614 49.0493 34.748 48.7261 35.5481Z" stroke="black"/>
<path d="M41.9085 9.36432C29.1062 4.19242 14.5361 10.3777 9.3642 23.1799C4.1923 35.9822 10.3776 50.5523 23.1798 55.7242C35.9821 60.8961 50.5522 54.7108 55.7241 41.9086C60.896 29.1063 54.7107 14.5362 41.9085 9.36432ZM48.7261 35.5481L48.4644 36.1958C48.2428 36.7444 47.7297 37.121 47.1401 37.1677L45.4109 37.3062C45.1363 37.3283 44.8607 37.2772 44.6122 37.1583C44.3637 37.0394 44.1511 36.8568 43.9959 36.6292L42.7523 34.8069C42.6181 34.6104 42.4408 34.4471 42.234 34.3295C42.0272 34.2118 41.7963 34.1429 41.5588 34.1279L41.2779 34.1101C40.2493 34.0458 39.4427 34.9767 39.6513 35.9862L40.1389 38.3424C40.2444 38.8536 40.599 39.2785 41.0832 39.4741L41.8505 39.7841C42.6506 40.1073 43.0372 41.018 42.714 41.8181L42.2858 42.878C42.1593 43.1911 41.934 43.4556 41.6449 43.6302L38.9501 45.2574C38.7456 45.3814 38.5719 45.5504 38.4428 45.7516L37.1789 47.7231C36.9967 48.0072 36.7273 48.2245 36.4107 48.3434C35.1973 48.7967 34.043 49.3949 32.973 50.1249L31.0169 51.4602C30.6365 51.7198 30.1979 51.8815 29.74 51.931C29.2821 51.9804 28.8191 51.916 28.392 51.7436C27.4097 51.3468 26.7358 50.4287 26.6514 49.3726C26.5531 48.1416 26.7427 46.9046 27.2053 45.7596L28.334 42.9659C28.6572 42.1658 28.2706 41.2551 27.4705 40.9319L25.0516 39.9547C23.6972 39.4075 22.6164 38.3447 22.0451 37.0005C21.4747 35.656 21.4614 34.14 22.0082 32.7857L22.5391 31.4716C23.1882 29.8649 24.5566 28.6575 26.2315 28.2121L29.5905 27.3197C30.7423 27.0139 31.9621 27.0897 33.0671 27.5358L33.1503 27.5694C33.9429 27.8896 34.6508 28.3898 35.2158 29.0312L36.3138 30.2749C36.5882 30.5859 36.9742 30.7744 37.3878 30.8001L42.4052 31.1125C43.0765 31.1543 43.6991 30.7622 43.951 30.1388C44.2742 29.3387 43.8876 28.428 43.0875 28.1048L42.1444 27.7238C41.7603 27.5686 41.4536 27.2675 41.2915 26.8856L40.906 25.9775C40.8258 25.7886 40.7092 25.6174 40.5629 25.4736C40.4165 25.3297 40.2433 25.2162 40.053 25.1393L31.6362 21.7391C30.8362 21.4159 30.4495 20.5052 30.7728 19.7051L30.9389 19.2938C31.2074 18.6293 31.8939 18.2325 32.6041 18.3314L34.091 18.5396C34.4761 18.593 34.8673 18.502 35.1885 18.2828L36.401 17.456C36.832 17.1615 37.3821 17.1022 37.8663 17.2978L40.1292 18.2119C40.9292 18.5352 41.84 18.1485 42.1632 17.3485L42.9826 15.3202C49.9022 19.5116 53.607 27.4653 52.4827 35.3805L50.7601 34.6846C49.96 34.3614 49.0493 34.748 48.7261 35.5481Z" fill="#010101"/>
<path d="M41.9085 9.36432C29.1062 4.19242 14.5361 10.3777 9.3642 23.1799C4.1923 35.9822 10.3776 50.5523 23.1798 55.7242C35.9821 60.8961 50.5522 54.7108 55.7241 41.9086C60.896 29.1063 54.7107 14.5362 41.9085 9.36432ZM48.7261 35.5481L48.4644 36.1958C48.2428 36.7444 47.7297 37.121 47.1401 37.1677L45.4109 37.3062C45.1363 37.3283 44.8607 37.2772 44.6122 37.1583C44.3637 37.0394 44.1511 36.8568 43.9959 36.6292L42.7523 34.8069C42.6181 34.6104 42.4408 34.4471 42.234 34.3295C42.0272 34.2118 41.7963 34.1429 41.5588 34.1279L41.2779 34.1101C40.2493 34.0458 39.4427 34.9767 39.6513 35.9862L40.1389 38.3424C40.2444 38.8536 40.599 39.2785 41.0832 39.4741L41.8505 39.7841C42.6506 40.1073 43.0372 41.018 42.714 41.8181L42.2858 42.878C42.1593 43.1911 41.934 43.4556 41.6449 43.6302L38.9501 45.2574C38.7456 45.3814 38.5719 45.5504 38.4428 45.7516L37.1789 47.7231C36.9967 48.0072 36.7273 48.2245 36.4107 48.3434C35.1973 48.7967 34.043 49.3949 32.973 50.1249L31.0169 51.4602C30.6365 51.7198 30.1979 51.8815 29.74 51.931C29.2821 51.9804 28.8191 51.916 28.392 51.7436C27.4097 51.3468 26.7358 50.4287 26.6514 49.3726C26.5531 48.1416 26.7427 46.9046 27.2053 45.7596L28.334 42.9659C28.6572 42.1658 28.2706 41.2551 27.4705 40.9319L25.0516 39.9547C23.6972 39.4075 22.6164 38.3447 22.0451 37.0005C21.4747 35.656 21.4614 34.14 22.0082 32.7857L22.5391 31.4716C23.1882 29.8649 24.5566 28.6575 26.2315 28.2121L29.5905 27.3197C30.7423 27.0139 31.9621 27.0897 33.0671 27.5358L33.1503 27.5694C33.9429 27.8896 34.6508 28.3898 35.2158 29.0312L36.3138 30.2749C36.5882 30.5859 36.9742 30.7744 37.3878 30.8001L42.4052 31.1125C43.0765 31.1543 43.6991 30.7622 43.951 30.1388C44.2742 29.3387 43.8876 28.428 43.0875 28.1048L42.1444 27.7238C41.7603 27.5686 41.4536 27.2675 41.2915 26.8856L40.906 25.9775C40.8258 25.7886 40.7092 25.6174 40.5629 25.4736C40.4165 25.3297 40.2433 25.2162 40.053 25.1393L31.6362 21.7391C30.8362 21.4159 30.4495 20.5052 30.7728 19.7051L30.9389 19.2938C31.2074 18.6293 31.8939 18.2325 32.6041 18.3314L34.091 18.5396C34.4761 18.593 34.8673 18.502 35.1885 18.2828L36.401 17.456C36.832 17.1615 37.3821 17.1022 37.8663 17.2978L40.1292 18.2119C40.9292 18.5352 41.84 18.1485 42.1632 17.3485L42.9826 15.3202C49.9022 19.5116 53.607 27.4653 52.4827 35.3805L50.7601 34.6846C49.96 34.3614 49.0493 34.748 48.7261 35.5481Z" stroke="black"/>
</svg>
