<svg width="140" height="44" viewBox="0 0 140 44" fill="none" xmlns="http://www.w3.org/2000/svg">
<path d="M66.9357 1.84C66.8824 2.34667 66.8424 2.84 66.8157 3.32C66.8024 3.78667 66.7957 4.14667 66.7957 4.4C66.7957 4.72 66.8024 5.02 66.8157 5.3C66.829 5.58 66.8424 5.82667 66.8557 6.04H66.3957C66.3024 5.10667 66.1757 4.37333 66.0157 3.84C65.8557 3.29333 65.5757 2.9 65.1757 2.66C64.7757 2.42 64.1557 2.3 63.3157 2.3H62.2357V13.68C62.2357 14.2133 62.2824 14.6133 62.3757 14.88C62.4824 15.1467 62.6824 15.3267 62.9757 15.42C63.269 15.5133 63.6957 15.5733 64.2557 15.6V16C63.909 15.9733 63.469 15.96 62.9357 15.96C62.4024 15.9467 61.8624 15.94 61.3157 15.94C60.7157 15.94 60.149 15.9467 59.6157 15.96C59.0957 15.96 58.6757 15.9733 58.3557 16V15.6C58.9157 15.5733 59.3424 15.5133 59.6357 15.42C59.929 15.3267 60.1224 15.1467 60.2157 14.88C60.3224 14.6133 60.3757 14.2133 60.3757 13.68V2.3H59.2957C58.469 2.3 57.849 2.42 57.4357 2.66C57.0357 2.9 56.7557 3.29333 56.5957 3.84C56.4357 4.37333 56.309 5.10667 56.2157 6.04H55.7557C55.7824 5.82667 55.7957 5.58 55.7957 5.3C55.809 5.02 55.8157 4.72 55.8157 4.4C55.8157 4.14667 55.8024 3.78667 55.7757 3.32C55.7624 2.84 55.729 2.34667 55.6757 1.84C56.2357 1.85333 56.8424 1.86667 57.4957 1.88C58.1624 1.89333 58.829 1.9 59.4957 1.9C60.1624 1.9 60.769 1.9 61.3157 1.9C61.8624 1.9 62.4624 1.9 63.1157 1.9C63.7824 1.9 64.449 1.89333 65.1157 1.88C65.7824 1.86667 66.389 1.85333 66.9357 1.84ZM76.7176 16V15.6C77.1709 15.5733 77.5109 15.52 77.7376 15.44C77.9776 15.36 78.1376 15.2 78.2176 14.96C78.2976 14.72 78.3376 14.36 78.3376 13.88V3.96C78.3376 3.46667 78.2976 3.10667 78.2176 2.88C78.1376 2.64 77.9776 2.48 77.7376 2.4C77.5109 2.30667 77.1709 2.25333 76.7176 2.24V1.84C77.0242 1.85333 77.4109 1.86667 77.8776 1.88C78.3442 1.89333 78.8042 1.9 79.2576 1.9C79.7776 1.9 80.2642 1.89333 80.7176 1.88C81.1709 1.86667 81.5376 1.85333 81.8176 1.84V2.24C81.3642 2.25333 81.0176 2.30667 80.7776 2.4C80.5509 2.48 80.3976 2.64 80.3176 2.88C80.2376 3.10667 80.1976 3.46667 80.1976 3.96V13.88C80.1976 14.36 80.2376 14.72 80.3176 14.96C80.3976 15.2 80.5509 15.36 80.7776 15.44C81.0176 15.52 81.3642 15.5733 81.8176 15.6V16C81.5376 15.9733 81.1709 15.96 80.7176 15.96C80.2642 15.9467 79.7776 15.94 79.2576 15.94C78.8042 15.94 78.3442 15.9467 77.8776 15.96C77.4109 15.96 77.0242 15.9733 76.7176 16ZM68.3576 16V15.6C68.8109 15.5733 69.1509 15.52 69.3776 15.44C69.6176 15.36 69.7776 15.2 69.8576 14.96C69.9376 14.72 69.9776 14.36 69.9776 13.88V3.96C69.9776 3.46667 69.9376 3.10667 69.8576 2.88C69.7776 2.64 69.6176 2.48 69.3776 2.4C69.1509 2.30667 68.8109 2.25333 68.3576 2.24V1.84C68.6376 1.85333 69.0042 1.86667 69.4576 1.88C69.9109 1.89333 70.3976 1.9 70.9176 1.9C71.3842 1.9 71.8442 1.89333 72.2976 1.88C72.7642 1.86667 73.1509 1.85333 73.4576 1.84V2.24C73.0042 2.25333 72.6576 2.30667 72.4176 2.4C72.1909 2.48 72.0376 2.64 71.9576 2.88C71.8776 3.10667 71.8376 3.46667 71.8376 3.96V13.88C71.8376 14.36 71.8776 14.72 71.9576 14.96C72.0376 15.2 72.1909 15.36 72.4176 15.44C72.6576 15.52 73.0042 15.5733 73.4576 15.6V16C73.1509 15.9733 72.7642 15.96 72.2976 15.96C71.8442 15.9467 71.3842 15.94 70.9176 15.94C70.3976 15.94 69.9109 15.9467 69.4576 15.96C69.0042 15.96 68.6376 15.9733 68.3576 16ZM71.1376 9.08V8.68H79.0376V9.08H71.1376ZM93.4743 1.84C93.421 2.30667 93.381 2.76 93.3543 3.2C93.341 3.64 93.3343 3.97333 93.3343 4.2C93.3343 4.44 93.341 4.67333 93.3543 4.9C93.3676 5.11333 93.381 5.29333 93.3943 5.44H92.9343C92.8543 4.65333 92.741 4.03333 92.5943 3.58C92.4476 3.11333 92.1943 2.78667 91.8343 2.6C91.4876 2.4 90.961 2.3 90.2543 2.3H88.5943C88.141 2.3 87.7943 2.34 87.5543 2.42C87.3276 2.48667 87.1743 2.64 87.0943 2.88C87.0143 3.10667 86.9743 3.46667 86.9743 3.96V13.88C86.9743 14.36 87.0143 14.72 87.0943 14.96C87.1743 15.2 87.3276 15.36 87.5543 15.44C87.7943 15.5067 88.141 15.54 88.5943 15.54H90.0543C90.8943 15.54 91.5276 15.4267 91.9543 15.2C92.3943 14.9733 92.7076 14.6067 92.8943 14.1C93.0943 13.58 93.241 12.88 93.3343 12H93.7943C93.7543 12.36 93.7343 12.84 93.7343 13.44C93.7343 13.6933 93.741 14.06 93.7543 14.54C93.781 15.0067 93.821 15.4933 93.8743 16C93.1943 15.9733 92.4276 15.96 91.5743 15.96C90.721 15.9467 89.961 15.94 89.2943 15.94C89.001 15.94 88.621 15.94 88.1543 15.94C87.701 15.94 87.2076 15.9467 86.6743 15.96C86.141 15.96 85.601 15.9667 85.0543 15.98C84.5076 15.98 83.9876 15.9867 83.4943 16V15.6C83.9476 15.5733 84.2876 15.52 84.5143 15.44C84.7543 15.36 84.9143 15.2 84.9943 14.96C85.0743 14.72 85.1143 14.36 85.1143 13.88V3.96C85.1143 3.46667 85.0743 3.10667 84.9943 2.88C84.9143 2.64 84.7543 2.48 84.5143 2.4C84.2876 2.30667 83.9476 2.25333 83.4943 2.24V1.84C83.9876 1.85333 84.5076 1.86667 85.0543 1.88C85.601 1.88 86.141 1.88667 86.6743 1.9C87.2076 1.9 87.701 1.9 88.1543 1.9C88.621 1.9 89.001 1.9 89.2943 1.9C89.9076 1.9 90.601 1.9 91.3743 1.9C92.161 1.88667 92.861 1.86667 93.4743 1.84ZM90.0343 8.68C90.0343 8.68 90.0343 8.74667 90.0343 8.88C90.0343 9.01333 90.0343 9.08 90.0343 9.08H86.3743C86.3743 9.08 86.3743 9.01333 86.3743 8.88C86.3743 8.74667 86.3743 8.68 86.3743 8.68H90.0343ZM90.6143 6.04C90.561 6.8 90.5343 7.38 90.5343 7.78C90.5476 8.18 90.5543 8.54667 90.5543 8.88C90.5543 9.21333 90.561 9.58 90.5743 9.98C90.5876 10.38 90.621 10.96 90.6743 11.72H90.2143C90.161 11.2933 90.0943 10.88 90.0143 10.48C89.9476 10.0667 89.7876 9.73333 89.5343 9.48C89.2943 9.21333 88.881 9.08 88.2943 9.08V8.68C88.7343 8.68 89.0676 8.59333 89.2943 8.42C89.5343 8.23333 89.7076 8 89.8143 7.72C89.921 7.44 89.9943 7.15333 90.0343 6.86C90.0743 6.55333 90.1143 6.28 90.1543 6.04H90.6143ZM117.298 1.84V2.24C117.045 2.29333 116.765 2.44667 116.458 2.7C116.152 2.94 115.905 3.36667 115.718 3.98L111.938 16.1C111.912 16.1 111.885 16.1 111.858 16.1C111.832 16.1 111.805 16.1 111.778 16.1C111.752 16.1 111.725 16.1 111.698 16.1C111.672 16.1 111.645 16.1 111.618 16.1L107.378 3.52C107.205 3 107.012 2.66 106.798 2.5C106.585 2.34 106.385 2.25333 106.198 2.24V1.84C106.438 1.85333 106.738 1.86667 107.098 1.88C107.458 1.89333 107.805 1.9 108.138 1.9C108.658 1.9 109.145 1.89333 109.598 1.88C110.052 1.86667 110.418 1.85333 110.698 1.84V2.24C110.298 2.25333 109.978 2.29333 109.738 2.36C109.512 2.42667 109.378 2.57333 109.338 2.8C109.312 3.02667 109.378 3.4 109.538 3.92L112.518 13.14L112.238 13.38L114.878 5.08C115.118 4.34667 115.225 3.78 115.198 3.38C115.185 2.96667 115.038 2.68 114.758 2.52C114.478 2.34667 114.058 2.25333 113.498 2.24V1.84C113.885 1.85333 114.278 1.86667 114.678 1.88C115.078 1.89333 115.452 1.9 115.798 1.9C116.145 1.9 116.432 1.89333 116.658 1.88C116.885 1.86667 117.098 1.85333 117.298 1.84ZM103.318 1.84V2.24C102.972 2.26667 102.718 2.33333 102.558 2.44C102.412 2.54667 102.338 2.72 102.338 2.96C102.352 3.18667 102.425 3.50667 102.558 3.92L105.658 13.38L105.158 13.88L107.958 4.94L108.258 5.42L104.958 16.1C104.932 16.1 104.905 16.1 104.878 16.1C104.852 16.1 104.825 16.1 104.798 16.1C104.772 16.1 104.745 16.1 104.718 16.1C104.692 16.1 104.665 16.1 104.638 16.1L100.398 3.52C100.225 3 100.005 2.66 99.7382 2.5C99.4715 2.34 99.2315 2.25333 99.0182 2.24V1.84C99.2849 1.85333 99.6115 1.86667 99.9982 1.88C100.398 1.89333 100.785 1.9 101.158 1.9C101.598 1.9 102.005 1.89333 102.378 1.88C102.765 1.86667 103.078 1.85333 103.318 1.84ZM122.591 1.74L127.471 14.32C127.671 14.8267 127.898 15.1667 128.151 15.34C128.404 15.5 128.638 15.5867 128.851 15.6V16C128.584 15.9733 128.258 15.96 127.871 15.96C127.484 15.9467 127.098 15.94 126.711 15.94C126.191 15.94 125.704 15.9467 125.251 15.96C124.798 15.96 124.431 15.9733 124.151 16V15.6C124.831 15.5733 125.264 15.46 125.451 15.26C125.638 15.0467 125.598 14.6 125.331 13.92L121.611 3.98L121.931 3.72L118.451 12.76C118.238 13.2933 118.111 13.7467 118.071 14.12C118.031 14.48 118.064 14.7667 118.171 14.98C118.291 15.1933 118.484 15.3467 118.751 15.44C119.031 15.5333 119.378 15.5867 119.791 15.6V16C119.418 15.9733 119.024 15.96 118.611 15.96C118.211 15.9467 117.838 15.94 117.491 15.94C117.158 15.94 116.871 15.9467 116.631 15.96C116.404 15.96 116.191 15.9733 115.991 16V15.6C116.258 15.5333 116.531 15.38 116.811 15.14C117.091 14.8867 117.344 14.46 117.571 13.86L122.271 1.74C122.324 1.74 122.378 1.74 122.431 1.74C122.484 1.74 122.538 1.74 122.591 1.74ZM125.031 10.24V10.64H119.071L119.271 10.24H125.031ZM139.492 1.84V2.24C139.239 2.29333 138.986 2.46 138.732 2.74C138.479 3.00667 138.199 3.43333 137.892 4.02L133.852 12.02H133.512L128.832 3.38C128.566 2.88667 128.339 2.58 128.152 2.46C127.979 2.32667 127.819 2.26 127.672 2.26V1.84C127.939 1.85333 128.212 1.86667 128.492 1.88C128.786 1.89333 129.099 1.9 129.432 1.9C129.872 1.9 130.339 1.9 130.832 1.9C131.339 1.88667 131.806 1.86667 132.232 1.84V2.26C131.899 2.26 131.606 2.3 131.352 2.38C131.099 2.46 130.932 2.60667 130.852 2.82C130.772 3.03333 130.832 3.33333 131.032 3.72L134.412 10.2L134.252 10.32L136.912 5.02C137.286 4.28667 137.466 3.72 137.452 3.32C137.452 2.92 137.299 2.64667 136.992 2.5C136.686 2.34 136.252 2.25333 135.692 2.24V1.84C136.079 1.85333 136.472 1.86667 136.872 1.88C137.272 1.89333 137.646 1.9 137.992 1.9C138.339 1.9 138.626 1.89333 138.852 1.88C139.079 1.86667 139.292 1.85333 139.492 1.84ZM134.752 9.92V13.88C134.752 14.36 134.792 14.72 134.872 14.96C134.952 15.2 135.106 15.36 135.332 15.44C135.572 15.52 135.919 15.5733 136.372 15.6V16C136.066 15.9733 135.679 15.96 135.212 15.96C134.759 15.9467 134.299 15.94 133.832 15.94C133.312 15.94 132.826 15.9467 132.372 15.96C131.919 15.96 131.552 15.9733 131.272 16V15.6C131.726 15.5733 132.066 15.52 132.292 15.44C132.532 15.36 132.692 15.2 132.772 14.96C132.852 14.72 132.892 14.36 132.892 13.88V9.78L133.972 11.02L134.752 9.92ZM62.213 28.56C63.093 28.56 63.813 28.6933 64.373 28.96C64.9463 29.2133 65.453 29.5133 65.893 29.86C66.1596 30.06 66.3596 30.0867 66.493 29.94C66.6396 29.78 66.7396 29.4133 66.793 28.84H67.253C67.2263 29.3333 67.2063 29.9333 67.193 30.64C67.1796 31.3467 67.173 32.28 67.173 33.44H66.713C66.6196 32.8667 66.533 32.4133 66.453 32.08C66.373 31.7333 66.273 31.44 66.153 31.2C66.0463 30.96 65.8996 30.72 65.713 30.48C65.2996 29.9333 64.7796 29.54 64.153 29.3C63.5263 29.0467 62.8663 28.92 62.173 28.92C61.5196 28.92 60.9263 29.0867 60.393 29.42C59.873 29.74 59.4196 30.2067 59.033 30.82C58.6596 31.4333 58.3663 32.1733 58.153 33.04C57.953 33.9067 57.853 34.88 57.853 35.96C57.853 37.08 57.9663 38.0733 58.193 38.94C58.4196 39.7933 58.733 40.5133 59.133 41.1C59.5463 41.6867 60.0263 42.1333 60.573 42.44C61.133 42.7333 61.733 42.88 62.373 42.88C62.973 42.88 63.5996 42.76 64.253 42.52C64.9063 42.28 65.4196 41.8933 65.793 41.36C66.0863 40.9733 66.2863 40.5533 66.393 40.1C66.513 39.6467 66.6196 39.0133 66.713 38.2H67.173C67.173 39.4133 67.1796 40.3933 67.193 41.14C67.2063 41.8733 67.2263 42.4933 67.253 43H66.793C66.7396 42.4267 66.6463 42.0667 66.513 41.92C66.393 41.7733 66.1863 41.7933 65.893 41.98C65.3996 42.3267 64.873 42.6333 64.313 42.9C63.7663 43.1533 63.0596 43.28 62.193 43.28C60.9263 43.28 59.813 42.9933 58.853 42.42C57.9063 41.8467 57.1663 41.02 56.633 39.94C56.113 38.86 55.853 37.56 55.853 36.04C55.853 34.5467 56.1263 33.24 56.673 32.12C57.2196 31 57.9663 30.1267 58.913 29.5C59.873 28.8733 60.973 28.56 62.213 28.56ZM77.7625 43V42.6C78.2158 42.5733 78.5558 42.52 78.7825 42.44C79.0225 42.36 79.1825 42.2 79.2625 41.96C79.3425 41.72 79.3825 41.36 79.3825 40.88V30.96C79.3825 30.4667 79.3425 30.1067 79.2625 29.88C79.1825 29.64 79.0225 29.48 78.7825 29.4C78.5558 29.3067 78.2158 29.2533 77.7625 29.24V28.84C78.0692 28.8533 78.4558 28.8667 78.9225 28.88C79.3892 28.8933 79.8492 28.9 80.3025 28.9C80.8225 28.9 81.3092 28.8933 81.7625 28.88C82.2158 28.8667 82.5825 28.8533 82.8625 28.84V29.24C82.4092 29.2533 82.0625 29.3067 81.8225 29.4C81.5958 29.48 81.4425 29.64 81.3625 29.88C81.2825 30.1067 81.2425 30.4667 81.2425 30.96V40.88C81.2425 41.36 81.2825 41.72 81.3625 41.96C81.4425 42.2 81.5958 42.36 81.8225 42.44C82.0625 42.52 82.4092 42.5733 82.8625 42.6V43C82.5825 42.9733 82.2158 42.96 81.7625 42.96C81.3092 42.9467 80.8225 42.94 80.3025 42.94C79.8492 42.94 79.3892 42.9467 78.9225 42.96C78.4558 42.96 78.0692 42.9733 77.7625 43ZM69.4025 43V42.6C69.8558 42.5733 70.1958 42.52 70.4225 42.44C70.6625 42.36 70.8225 42.2 70.9025 41.96C70.9825 41.72 71.0225 41.36 71.0225 40.88V30.96C71.0225 30.4667 70.9825 30.1067 70.9025 29.88C70.8225 29.64 70.6625 29.48 70.4225 29.4C70.1958 29.3067 69.8558 29.2533 69.4025 29.24V28.84C69.6825 28.8533 70.0492 28.8667 70.5025 28.88C70.9558 28.8933 71.4425 28.9 71.9625 28.9C72.4292 28.9 72.8892 28.8933 73.3425 28.88C73.8092 28.8667 74.1958 28.8533 74.5025 28.84V29.24C74.0492 29.2533 73.7025 29.3067 73.4625 29.4C73.2358 29.48 73.0825 29.64 73.0025 29.88C72.9225 30.1067 72.8825 30.4667 72.8825 30.96V40.88C72.8825 41.36 72.9225 41.72 73.0025 41.96C73.0825 42.2 73.2358 42.36 73.4625 42.44C73.7025 42.52 74.0492 42.5733 74.5025 42.6V43C74.1958 42.9733 73.8092 42.96 73.3425 42.96C72.8892 42.9467 72.4292 42.94 71.9625 42.94C71.4425 42.94 70.9558 42.9467 70.5025 42.96C70.0492 42.96 69.6825 42.9733 69.4025 43ZM72.1825 36.08V35.68H80.0825V36.08H72.1825ZM96.7992 28.84V29.24C96.3459 29.2533 95.9992 29.32 95.7592 29.44C95.5326 29.56 95.3792 29.7533 95.2992 30.02C95.2192 30.2867 95.1792 30.6667 95.1792 31.16V37.18C95.1792 38.1133 95.1192 38.9267 94.9992 39.62C94.8792 40.3133 94.6659 40.9133 94.3592 41.42C94.0259 41.98 93.5392 42.4333 92.8992 42.78C92.2592 43.1133 91.5259 43.28 90.6992 43.28C90.0592 43.28 89.4459 43.2 88.8592 43.04C88.2859 42.8933 87.7792 42.6133 87.3392 42.2C86.9526 41.8267 86.6459 41.4333 86.4192 41.02C86.2059 40.6067 86.0592 40.1 85.9792 39.5C85.8992 38.9 85.8592 38.1467 85.8592 37.24V30.96C85.8592 30.4667 85.8192 30.1067 85.7392 29.88C85.6592 29.64 85.4992 29.48 85.2592 29.4C85.0326 29.3067 84.6926 29.2533 84.2392 29.24V28.84C84.5192 28.8533 84.8859 28.8667 85.3392 28.88C85.7926 28.8933 86.2792 28.9 86.7992 28.9C87.2659 28.9 87.7259 28.8933 88.1792 28.88C88.6459 28.8667 89.0326 28.8533 89.3392 28.84V29.24C88.8859 29.2533 88.5392 29.3067 88.2992 29.4C88.0726 29.48 87.9192 29.64 87.8392 29.88C87.7592 30.1067 87.7192 30.4667 87.7192 30.96V37.58C87.7192 38.26 87.7526 38.9067 87.8192 39.52C87.8859 40.12 88.0192 40.6533 88.2192 41.12C88.4326 41.5733 88.7526 41.9333 89.1792 42.2C89.6059 42.4533 90.1726 42.58 90.8792 42.58C91.8926 42.58 92.6726 42.36 93.2192 41.92C93.7792 41.4667 94.1659 40.8467 94.3792 40.06C94.6059 39.2733 94.7192 38.3867 94.7192 37.4V31.16C94.7192 30.6667 94.6592 30.2867 94.5392 30.02C94.4326 29.7533 94.2459 29.56 93.9792 29.44C93.7126 29.32 93.3526 29.2533 92.8992 29.24V28.84C93.1392 28.8533 93.4526 28.8667 93.8392 28.88C94.2392 28.8933 94.6059 28.9 94.9392 28.9C95.2859 28.9 95.6259 28.8933 95.9592 28.88C96.3059 28.8667 96.5859 28.8533 96.7992 28.84ZM98.172 28.84C98.452 28.8533 98.8187 28.8667 99.272 28.88C99.7254 28.8933 100.172 28.9 100.612 28.9C101.239 28.9 101.839 28.8933 102.412 28.88C102.985 28.8667 103.392 28.86 103.632 28.86C104.712 28.86 105.605 29.0133 106.312 29.32C107.032 29.6267 107.565 30.0467 107.912 30.58C108.272 31.1 108.452 31.6867 108.452 32.34C108.452 32.74 108.372 33.1667 108.212 33.62C108.052 34.0733 107.772 34.5 107.372 34.9C106.985 35.3 106.452 35.6333 105.772 35.9C105.092 36.1533 104.232 36.28 103.192 36.28H101.272V35.88H102.992C103.939 35.88 104.659 35.7333 105.152 35.44C105.659 35.1333 105.999 34.7333 106.172 34.24C106.359 33.7333 106.452 33.1733 106.452 32.56C106.452 31.5067 106.199 30.6933 105.692 30.12C105.199 29.5333 104.345 29.24 103.132 29.24C102.519 29.24 102.119 29.3533 101.932 29.58C101.745 29.8067 101.652 30.2667 101.652 30.96V40.88C101.652 41.36 101.692 41.72 101.772 41.96C101.852 42.2 102.005 42.36 102.232 42.44C102.472 42.52 102.819 42.5733 103.272 42.6V43C102.965 42.9733 102.579 42.96 102.112 42.96C101.659 42.9467 101.199 42.94 100.732 42.94C100.212 42.94 99.7254 42.9467 99.272 42.96C98.8187 42.96 98.452 42.9733 98.172 43V42.6C98.6254 42.5733 98.9654 42.52 99.192 42.44C99.432 42.36 99.592 42.2 99.672 41.96C99.752 41.72 99.792 41.36 99.792 40.88V30.96C99.792 30.4667 99.752 30.1067 99.672 29.88C99.592 29.64 99.432 29.48 99.192 29.4C98.9654 29.3067 98.6254 29.2533 98.172 29.24V28.84ZM101.352 35.94C102.072 35.9667 102.639 36 103.052 36.04C103.465 36.0667 103.799 36.0933 104.052 36.12C104.319 36.1467 104.572 36.18 104.812 36.22C105.705 36.3667 106.345 36.64 106.732 37.04C107.132 37.4267 107.425 38.0333 107.612 38.86L108.112 40.9C108.245 41.4867 108.379 41.9133 108.512 42.18C108.659 42.4333 108.879 42.5533 109.172 42.54C109.399 42.5267 109.585 42.4533 109.732 42.32C109.892 42.1867 110.059 42.0067 110.232 41.78L110.532 42C110.252 42.4133 109.959 42.7333 109.652 42.96C109.359 43.1733 108.939 43.28 108.392 43.28C107.899 43.28 107.465 43.1333 107.092 42.84C106.719 42.5467 106.439 41.9733 106.252 41.12L105.812 39.12C105.692 38.5467 105.552 38.0533 105.392 37.64C105.245 37.2133 105.032 36.88 104.752 36.64C104.485 36.4 104.085 36.28 103.552 36.28H101.392L101.352 35.94ZM117.721 28.56C118.601 28.56 119.321 28.6933 119.881 28.96C120.454 29.2133 120.961 29.5133 121.401 29.86C121.667 30.06 121.867 30.0867 122.001 29.94C122.147 29.78 122.247 29.4133 122.301 28.84H122.761C122.734 29.3333 122.714 29.9333 122.701 30.64C122.687 31.3467 122.681 32.28 122.681 33.44H122.221C122.127 32.8667 122.041 32.4133 121.961 32.08C121.881 31.7333 121.781 31.44 121.661 31.2C121.554 30.96 121.407 30.72 121.221 30.48C120.807 29.9333 120.287 29.54 119.661 29.3C119.034 29.0467 118.374 28.92 117.681 28.92C117.027 28.92 116.434 29.0867 115.901 29.42C115.381 29.74 114.927 30.2067 114.541 30.82C114.167 31.4333 113.874 32.1733 113.661 33.04C113.461 33.9067 113.361 34.88 113.361 35.96C113.361 37.08 113.474 38.0733 113.701 38.94C113.927 39.7933 114.241 40.5133 114.641 41.1C115.054 41.6867 115.534 42.1333 116.081 42.44C116.641 42.7333 117.241 42.88 117.881 42.88C118.481 42.88 119.107 42.76 119.761 42.52C120.414 42.28 120.927 41.8933 121.301 41.36C121.594 40.9733 121.794 40.5533 121.901 40.1C122.021 39.6467 122.127 39.0133 122.221 38.2H122.681C122.681 39.4133 122.687 40.3933 122.701 41.14C122.714 41.8733 122.734 42.4933 122.761 43H122.301C122.247 42.4267 122.154 42.0667 122.021 41.92C121.901 41.7733 121.694 41.7933 121.401 41.98C120.907 42.3267 120.381 42.6333 119.821 42.9C119.274 43.1533 118.567 43.28 117.701 43.28C116.434 43.28 115.321 42.9933 114.361 42.42C113.414 41.8467 112.674 41.02 112.141 39.94C111.621 38.86 111.361 37.56 111.361 36.04C111.361 34.5467 111.634 33.24 112.181 32.12C112.727 31 113.474 30.1267 114.421 29.5C115.381 28.8733 116.481 28.56 117.721 28.56ZM133.27 43V42.6C133.724 42.5733 134.064 42.52 134.29 42.44C134.53 42.36 134.69 42.2 134.77 41.96C134.85 41.72 134.89 41.36 134.89 40.88V30.96C134.89 30.4667 134.85 30.1067 134.77 29.88C134.69 29.64 134.53 29.48 134.29 29.4C134.064 29.3067 133.724 29.2533 133.27 29.24V28.84C133.577 28.8533 133.964 28.8667 134.43 28.88C134.897 28.8933 135.357 28.9 135.81 28.9C136.33 28.9 136.817 28.8933 137.27 28.88C137.724 28.8667 138.09 28.8533 138.37 28.84V29.24C137.917 29.2533 137.57 29.3067 137.33 29.4C137.104 29.48 136.95 29.64 136.87 29.88C136.79 30.1067 136.75 30.4667 136.75 30.96V40.88C136.75 41.36 136.79 41.72 136.87 41.96C136.95 42.2 137.104 42.36 137.33 42.44C137.57 42.52 137.917 42.5733 138.37 42.6V43C138.09 42.9733 137.724 42.96 137.27 42.96C136.817 42.9467 136.33 42.94 135.81 42.94C135.357 42.94 134.897 42.9467 134.43 42.96C133.964 42.96 133.577 42.9733 133.27 43ZM124.91 43V42.6C125.364 42.5733 125.704 42.52 125.93 42.44C126.17 42.36 126.33 42.2 126.41 41.96C126.49 41.72 126.53 41.36 126.53 40.88V30.96C126.53 30.4667 126.49 30.1067 126.41 29.88C126.33 29.64 126.17 29.48 125.93 29.4C125.704 29.3067 125.364 29.2533 124.91 29.24V28.84C125.19 28.8533 125.557 28.8667 126.01 28.88C126.464 28.8933 126.95 28.9 127.47 28.9C127.937 28.9 128.397 28.8933 128.85 28.88C129.317 28.8667 129.704 28.8533 130.01 28.84V29.24C129.557 29.2533 129.21 29.3067 128.97 29.4C128.744 29.48 128.59 29.64 128.51 29.88C128.43 30.1067 128.39 30.4667 128.39 30.96V40.88C128.39 41.36 128.43 41.72 128.51 41.96C128.59 42.2 128.744 42.36 128.97 42.44C129.21 42.52 129.557 42.5733 130.01 42.6V43C129.704 42.9733 129.317 42.96 128.85 42.96C128.397 42.9467 127.937 42.94 127.47 42.94C126.95 42.94 126.464 42.9467 126.01 42.96C125.557 42.96 125.19 42.9733 124.91 43ZM127.69 36.08V35.68H135.59V36.08H127.69Z" fill="#A08C60"/>
<path d="M25.1451 5.61859C17.4638 2.51545 8.72173 6.22662 5.61859 13.908C2.51545 21.5893 6.22662 30.3314 13.908 33.4345C21.5893 36.5377 30.3314 32.8265 33.4345 25.1451C36.5377 17.4638 32.8265 8.72173 25.1451 5.61859ZM29.2357 21.3288L29.0787 21.7175C28.9457 22.0467 28.6379 22.2726 28.2841 22.3006L27.2466 22.3837C27.0818 22.397 26.9165 22.3663 26.7674 22.295C26.6183 22.2236 26.4907 22.1141 26.3976 21.9775L25.6515 20.8841C25.5709 20.7662 25.4646 20.6683 25.3405 20.5977C25.2164 20.5271 25.0778 20.4857 24.9354 20.4768L24.7668 20.4661C24.1497 20.4275 23.6657 20.986 23.7909 21.5917L24.0834 23.0055C24.1467 23.3122 24.3595 23.5671 24.65 23.6844L25.1104 23.8704C25.5905 24.0644 25.8224 24.6108 25.6285 25.0909L25.3716 25.7268C25.2957 25.9147 25.1605 26.0734 24.987 26.1781L23.3701 27.1544C23.2475 27.2288 23.1432 27.3302 23.0658 27.4509L22.3074 28.6338C22.1981 28.8043 22.0365 28.9347 21.8465 29.006C21.1184 29.278 20.4259 29.6369 19.7839 30.075L18.6102 30.8761C18.382 31.0319 18.1188 31.1289 17.8441 31.1586C17.5693 31.1882 17.2915 31.1496 17.0353 31.0462C16.4459 30.8081 16.0415 30.2572 15.9909 29.6236C15.9319 28.885 16.0457 28.1428 16.3233 27.4558L17.0005 25.7795C17.1944 25.2995 16.9624 24.7531 16.4824 24.5591L15.031 23.9728C14.2184 23.6445 13.5699 23.0068 13.2271 22.2003C12.8849 21.3936 12.8769 20.484 13.205 19.6714L13.5235 18.8829C13.913 17.9189 14.734 17.1945 15.7389 16.9273L17.7544 16.3918C18.4454 16.2083 19.1773 16.2538 19.8403 16.5215L19.8902 16.5416C20.3658 16.7338 20.7906 17.0339 21.1296 17.4187L21.7883 18.1649C21.953 18.3515 22.1846 18.4646 22.4327 18.4801L25.4432 18.6675C25.846 18.6926 26.2196 18.4573 26.3707 18.0833C26.5646 17.6032 26.3326 17.0568 25.8526 16.8629L25.2867 16.6343C25.0562 16.5412 24.8722 16.3605 24.7749 16.1314L24.5436 15.5865C24.4956 15.4732 24.4256 15.3704 24.3378 15.2841C24.25 15.1978 24.146 15.1297 24.0319 15.0836L18.9818 13.0435C18.5018 12.8495 18.2698 12.3031 18.4637 11.8231L18.5634 11.5763C18.7245 11.1776 19.1364 10.9395 19.5625 10.9988L20.4547 11.1238C20.6857 11.1558 20.9204 11.1012 21.1132 10.9697L21.8407 10.4736C22.0993 10.2969 22.4294 10.2613 22.7199 10.3787L24.0776 10.9272C24.5576 11.1211 25.104 10.8891 25.298 10.4091L25.7896 9.19213C29.9414 11.707 32.1643 16.4792 31.4897 21.2283L30.4561 20.8107C29.9761 20.6168 29.4297 20.8488 29.2357 21.3288Z" fill="#A08C60"/>
<path d="M25.1451 5.61859C17.4638 2.51545 8.72173 6.22662 5.61859 13.908C2.51545 21.5893 6.22662 30.3314 13.908 33.4345C21.5893 36.5377 30.3314 32.8265 33.4345 25.1451C36.5377 17.4638 32.8265 8.72173 25.1451 5.61859ZM29.2357 21.3288L29.0787 21.7175C28.9457 22.0467 28.6379 22.2726 28.2841 22.3006L27.2466 22.3837C27.0818 22.397 26.9165 22.3663 26.7674 22.295C26.6183 22.2236 26.4907 22.1141 26.3976 21.9775L25.6515 20.8841C25.5709 20.7662 25.4646 20.6683 25.3405 20.5977C25.2164 20.5271 25.0778 20.4857 24.9354 20.4768L24.7668 20.4661C24.1497 20.4275 23.6657 20.986 23.7909 21.5917L24.0834 23.0055C24.1467 23.3122 24.3595 23.5671 24.65 23.6844L25.1104 23.8704C25.5905 24.0644 25.8224 24.6108 25.6285 25.0909L25.3716 25.7268C25.2957 25.9147 25.1605 26.0734 24.987 26.1781L23.3701 27.1544C23.2475 27.2288 23.1432 27.3302 23.0658 27.4509L22.3074 28.6338C22.1981 28.8043 22.0365 28.9347 21.8465 29.006C21.1184 29.278 20.4259 29.6369 19.7839 30.075L18.6102 30.8761C18.382 31.0319 18.1188 31.1289 17.8441 31.1586C17.5693 31.1882 17.2915 31.1496 17.0353 31.0462C16.4459 30.8081 16.0415 30.2572 15.9909 29.6236C15.9319 28.885 16.0457 28.1428 16.3233 27.4558L17.0005 25.7795C17.1944 25.2995 16.9624 24.7531 16.4824 24.5591L15.031 23.9728C14.2184 23.6445 13.5699 23.0068 13.2271 22.2003C12.8849 21.3936 12.8769 20.484 13.205 19.6714L13.5235 18.8829C13.913 17.9189 14.734 17.1945 15.7389 16.9273L17.7544 16.3918C18.4454 16.2083 19.1773 16.2538 19.8403 16.5215L19.8902 16.5416C20.3658 16.7338 20.7906 17.0339 21.1296 17.4187L21.7883 18.1649C21.953 18.3515 22.1846 18.4646 22.4327 18.4801L25.4432 18.6675C25.846 18.6926 26.2196 18.4573 26.3707 18.0833C26.5646 17.6032 26.3326 17.0568 25.8526 16.8629L25.2867 16.6343C25.0562 16.5412 24.8722 16.3605 24.7749 16.1314L24.5436 15.5865C24.4956 15.4732 24.4256 15.3704 24.3378 15.2841C24.25 15.1978 24.146 15.1297 24.0319 15.0836L18.9818 13.0435C18.5018 12.8495 18.2698 12.3031 18.4637 11.8231L18.5634 11.5763C18.7245 11.1776 19.1364 10.9395 19.5625 10.9988L20.4547 11.1238C20.6857 11.1558 20.9204 11.1012 21.1132 10.9697L21.8407 10.4736C22.0993 10.2969 22.4294 10.2613 22.7199 10.3787L24.0776 10.9272C24.5576 11.1211 25.104 10.8891 25.298 10.4091L25.7896 9.19213C29.9414 11.707 32.1643 16.4792 31.4897 21.2283L30.4561 20.8107C29.9761 20.6168 29.4297 20.8488 29.2357 21.3288Z" stroke="black"/>
</svg>
