<svg width="61" height="63" viewBox="0 0 61 63" fill="none" xmlns="http://www.w3.org/2000/svg">
<path d="M60.5 31.5C60.5 48.6362 47.0535 62.5 30.5 62.5C13.9465 62.5 0.5 48.6362 0.5 31.5C0.5 14.3638 13.9465 0.5 30.5 0.5C47.0535 0.5 60.5 14.3638 60.5 31.5Z" fill="#49494B" stroke="black"/>
<path d="M48.2464 22.3829C48.052 21.5234 47.6561 20.7358 47.0988 20.0998C46.5414 19.4638 45.8423 19.0019 45.072 18.7607C42.2576 18 31 18 31 18C31 18 19.7424 18 16.928 18.8331C16.1577 19.0743 15.4586 19.5363 14.9012 20.1723C14.3439 20.8083 13.948 21.5958 13.7536 22.4554C13.2385 25.6168 12.9866 28.8238 13.0009 32.0362C12.9826 35.2728 13.2345 38.5043 13.7536 41.6895C13.9679 42.5224 14.3726 43.28 14.9287 43.8891C15.4848 44.4982 16.1734 44.9383 16.928 45.1669C19.7424 46 31 46 31 46C31 46 42.2576 46 45.072 45.1669C45.8423 44.9257 46.5414 44.4637 47.0988 43.8277C47.6561 43.1917 48.052 42.4042 48.2464 41.5446C48.7575 38.407 49.0094 35.2244 48.9991 32.0362C49.0174 28.7997 48.7655 25.5681 48.2464 22.3829Z" stroke="black" stroke-width="2" stroke-linecap="round" stroke-linejoin="round"/>
<path d="M27.3125 37.9585L36.7211 32.0362L27.3125 26.1138V37.9585Z" stroke="black" stroke-width="2" stroke-linecap="round" stroke-linejoin="round"/>
</svg>
