<svg width="34" height="24" viewBox="0 0 34 24" fill="none" xmlns="http://www.w3.org/2000/svg">
<path d="M32.3301 4.44373C32.1573 3.76837 31.8055 3.14958 31.31 2.64987C30.8146 2.15015 30.1931 1.7872 29.5084 1.59767C27.0068 1 17 1 17 1C17 1 6.99325 1 4.49156 1.65459C3.80686 1.84412 3.18541 2.20707 2.68998 2.70679C2.19454 3.20651 1.84266 3.82529 1.66989 4.50065C1.21204 6.98462 0.988084 9.50445 1.00083 12.0285C0.984511 14.5715 1.20848 17.1105 1.66989 19.6132C1.86036 20.2676 2.22012 20.8628 2.71441 21.3414C3.20869 21.82 3.82079 22.1658 4.49156 22.3454C6.99325 23 17 23 17 23C17 23 27.0068 23 29.5084 22.3454C30.1931 22.1559 30.8146 21.7929 31.31 21.2932C31.8055 20.7935 32.1573 20.1747 32.3301 19.4994C32.7844 17.0341 33.0084 14.5335 32.9992 12.0285C33.0155 9.48545 32.7915 6.9464 32.3301 4.44373Z" stroke="black" stroke-width="2" stroke-linecap="round" stroke-linejoin="round"/>
<path d="M13.7266 16.6817L22.0898 12.0284L13.7266 7.37512V16.6817Z" stroke="black" stroke-width="2" stroke-linecap="round" stroke-linejoin="round"/>
</svg>
